<svg width="25" height="20" fill="none" xmlns="http://www.w3.org/2000/svg"><path d="M22.06.946c-.95.415-1.861.922-2.73 1.487-1.749 1.123-3.347 2.46-4.846 3.886a53.188 53.188 0 0 0-4.214 4.55c-.33.398-1.807 2.17-1.807 2.17L2.319 4.05 0 10.327 8.308 20c.807-1.595 1.583-3.169 2.345-4.536.19-.348.387-.675.577-1.008 0 0 .975-1.673 1.231-2.094a50.518 50.518 0 0 1 3.354-4.888c1.222-1.557 2.55-3.044 4.056-4.35a18.089 18.089 0 0 1 2.401-1.796C23.125.798 24.031.334 25 0c-1.008.194-1.992.53-2.94.946Z" fill="#FF6B09"/></svg>