<svg width="62" height="62" fill="none" xmlns="http://www.w3.org/2000/svg"><g clip-path="url('#clip0_1_2694')" fill="#FF6B09"><path d="M48.959 10H28.723a2.388 2.388 0 0 0-2.39 2.382v8.35L11.3 27.025a.488.488 0 0 0-.062.868l1.917 1.144v12.191a2.204 2.204 0 0 0-1.716 2.145v1.175c0 .27.22.488.49.488h3.433c.27 0 .49-.219.49-.488v-1.175a2.205 2.205 0 0 0-1.718-2.144V29.621l1.516.904c-.047.349-.006-.607-.022 5.676 0 2.065 5.307 3.172 10.706 3.235v9.514a2.388 2.388 0 0 0 2.388 2.378h20.236a2.386 2.386 0 0 0 2.386-2.38c0 .066-.002-2.015 0-36.566A2.4 2.4 0 0 0 48.96 10ZM14.872 43.372v.687h-2.454v-.687a1.227 1.227 0 0 1 2.454 0Zm34.087 6.977H28.723c-.486 0-.915-.245-1.168-.617a1.392 1.392 0 0 1-.241-.783V45.65h23.049v3.299c0 .764-.64 1.4-1.404 1.4Zm1.404-5.674h-23.05v-5.236c2.636-.03 10.712-.609 10.712-3.238-.003-3.947.007-5.548-.012-5.683l4.396-2.626a.488.488 0 0 0-.063-.868l-15.033-6.291v-4.077h23.05v28.019ZM26.823 32.96c-2.715 0-7.944.35-10.215 1.829.014-4.524-.158-4.229.4-4.613 1.412-1.035 5.448-1.759 9.815-1.759 1.905 0 10.223.522 10.223 2.278v4.094c-2.293-1.492-7.495-1.829-10.223-1.829Zm.491-20.578c0-.774.631-1.403 1.407-1.403h20.237a1.41 1.41 0 0 1 1.405 1.403v3.298H27.314v-3.298Zm-.49 9.205 14.252 5.963-3.532 2.107c-1.877-1.856-8.088-2.216-10.72-2.216-2.637 0-8.848.361-10.721 2.217L12.57 27.55l14.253-5.963ZM16.607 36.2c0-.79 3.508-2.265 10.215-2.265 6.712 0 10.223 1.475 10.223 2.265s-3.511 2.265-10.223 2.265c-6.707 0-10.215-1.475-10.215-2.265Z"/><path d="M38.84 46.387c-.893 0-1.62.724-1.62 1.614a1.619 1.619 0 0 0 3.24 0c0-.89-.727-1.614-1.62-1.614Zm0 2.253A.64.64 0 0 1 38.2 48a.64.64 0 0 1 1.28 0 .64.64 0 0 1-.64.639ZM40.708 12.841h-3.735v.976h3.735v-.976Z"/></g><path d="M61 9.235V1H1v60h60v-8.235" stroke="#FF6B09" stroke-width="2"/><defs><clipPath id="clip0_1_2694"><path fill="#fff" transform="translate(10 10)" d="M0 0h42v41H0z"/></clipPath></defs></svg>