<svg width="102" height="102" fill="none" xmlns="http://www.w3.org/2000/svg"><g clip-path="url('#clip0_1_3422')"><path d="M31.087 73.549h40.177c.199-4.582-.13-12.184-2.946-15.802l-.102-.13-6.156-3.09c.134-.452.2-.864.226-1.168.03-.364-.02-.707-.15-1.017-1.016-2.43-3.165-3.709-4.347-4.253.36-.726.593-1.505.705-2.301a1.975 1.975 0 0 0 1.384-1.427l.718-2.919a1.975 1.975 0 0 0-.226-1.503 1.969 1.969 0 0 0-.44-.502c2.025-4.601-1.368-8.94-1.553-9.168-3.675-3.973-8.317-3.23-8.562-3.186-6.7 1.402-9.284 6.537-7.825 12.558a1.977 1.977 0 0 0-.454 1.8l.722 2.923c.176.702.71 1.23 1.374 1.421a7.518 7.518 0 0 0 1.728 3.84v2.313c-9.613 4.923-3.522 1.783-11.226 5.68-.015.073-3.615 3.899-3.08 15.238l.033.693Zm38.78-1.455h-6.612v-2.777l4.374-10.012c2.19 3.636 2.272 10.58 2.239 12.79Zm-9.024-18.859c-.255 2.932-1.863 2.046-2.855 4.304-.78-.858-1.015-1.888-.805-2.99.379-2.022-.856-2.623-.55-4.748l.045-.049v-.006c.027-.03.27-.32.34-.411 2.617 1.14 3.876 3.261 3.825 3.9ZM46.81 50.931a7.448 7.448 0 0 0 8.362.113c.167 1.67.82 2.005.589 3.235a5.411 5.411 0 0 0-.081.674l-4.503 5.075-5.757-6.49 1.39-.725V50.93Zm-1.81-6.211v-7.758c.7-1.296 1.655-2.236 2.843-2.8 3.18 1.8 6.84 4.485 9.295 7.187-.002 3.442.01 3.451-.013 3.734l-.001.018c-.192 3.125-2.762 5.716-6.057 5.716-3.204 0-5.863-2.515-6.056-5.747a4.103 4.103 0 0 1-.012-.35Zm-.898 9.52 7.075 7.975 4.749-5.353c.109.313.26.608.435.893l-5.184 6.483-7.731-9.668.657-.33Zm14.485-10.69v-2.247l.54-.62c.03 1.138.152-.204-.54 2.867Zm-8.503-15.038c.287.018 4.148-.587 7.199 2.707.12.15 2.603 3.35 1.606 6.85-.342-1.557-.937-3.553-1.878-4.506l-1.028 1.025c.929.94 1.539 3.805 1.771 5.29-4.26-4.458-9.757-7.28-9.832-7.327-.276.171-2.601.613-4.29 3.896l-.081.157v2.412l-.213.002c-1.073-5.182.982-9.298 6.746-10.506Zm-6.899 12.002.366 1.48v1.557l-.608-2.458c-.089-.367.183-.506.242-.579ZM42.12 55.235l9.057 11.327 6.127-7.664c.666.597.987.681 2.4 1.408l-.477-1.617c-.12-.41.358-1.069.648-1.371a4.38 4.38 0 0 0 1.586-1.467l4.999 2.51-4.652 10.65v3.083H40.543v-3.082l-4.654-10.65 6.23-3.127Zm-7.398 4.073 4.374 10.009v2.777h-6.612c-.033-2.209.049-9.148 2.238-12.786Z" fill="#FF6B09"/></g><path d="M101 14.726V1H1v100h100V87.275" stroke="#FF6B09" stroke-width="2"/><defs><clipPath id="clip0_1_3422"><path fill="#fff" transform="translate(31 27)" d="M0 0h39.741v48H0z"/></clipPath></defs></svg>