<svg width="62" height="62" fill="none" xmlns="http://www.w3.org/2000/svg"><path d="M14.071 50h32.89c.163-3.839-.105-10.208-2.412-13.24l-.083-.108-5.04-2.59c.11-.377.164-.723.186-.978a1.832 1.832 0 0 0-.123-.852c-.831-2.036-2.59-3.107-3.558-3.563.294-.608.485-1.261.577-1.928a1.638 1.638 0 0 0 1.132-1.195l.588-2.446a1.688 1.688 0 0 0-.185-1.26 1.636 1.636 0 0 0-.36-.42c1.658-3.855-1.12-7.49-1.271-7.681-3.008-3.33-6.809-2.707-7.01-2.67-5.484 1.175-7.6 5.477-6.405 10.522-.354.401-.503.96-.372 1.509l.592 2.448c.143.588.58 1.031 1.124 1.19a6.368 6.368 0 0 0 1.415 3.217v1.94c-7.87 4.124-2.884 1.492-9.19 4.758-.013.06-2.96 3.266-2.522 12.767l.027.58Zm31.747-1.219h-5.413v-2.327l3.58-8.388c1.794 3.047 1.86 8.864 1.833 10.715Zm-7.387-15.8c-.21 2.456-1.525 1.713-2.338 3.605-.639-.719-.83-1.58-.659-2.504.31-1.695-.7-2.198-.45-3.979l.037-.04v-.006c.022-.025.22-.267.279-.344 2.141.955 3.172 2.732 3.13 3.268Zm-11.49-1.93a5.983 5.983 0 0 0 6.845.094c.138 1.4.673 1.68.483 2.71-.035.191-.055.38-.066.565l-3.687 4.252-4.712-5.437 1.138-.608V31.05Zm-1.482-5.205v-6.5c.574-1.086 1.356-1.873 2.328-2.345 2.604 1.507 5.6 3.757 7.61 6.021-.002 2.884.008 2.892-.01 3.129l-.002.015c-.157 2.618-2.26 4.789-4.958 4.789-2.623 0-4.8-2.108-4.958-4.815a3.518 3.518 0 0 1-.01-.294Zm-.734 7.977 5.791 6.681 3.888-4.484c.09.261.214.509.356.748l-4.244 5.431-6.328-8.1.537-.276Zm11.858-8.957v-1.883l.442-.518c.024.953.125-.172-.442 2.4Zm-6.961-12.6c.235.016 3.395-.491 5.893 2.268.098.127 2.132 2.808 1.315 5.74-.28-1.305-.767-2.977-1.537-3.775l-.842.858c.76.788 1.26 3.189 1.45 4.433-3.488-3.735-7.987-6.1-8.049-6.14-.226.144-2.13.515-3.512 3.265l-.066.132v2.02l-.175.002c-.878-4.341.804-7.79 5.523-8.802Zm-5.648 10.057.3 1.24v1.304l-.498-2.06c-.073-.307.15-.423.198-.484Zm-.871 12.333 7.413 9.49 5.016-6.42c.546.499.808.57 1.965 1.179l-.39-1.355c-.099-.344.293-.895.53-1.149a3.62 3.62 0 0 0 1.298-1.228l4.093 2.103-3.808 8.923v2.582H21.813V46.2l-3.81-8.922 5.1-2.62Zm-6.057 3.413 3.581 8.385v2.327h-5.413c-.027-1.85.04-7.665 1.832-10.712Z" fill="#FF6B09"/><path d="M61 9.235V1H1v60h60v-8.235" stroke="#FF6B09" stroke-width="2"/></svg>