<svg aria-hidden="true" style="width:0;height:0;position:absolute;overflow:hidden" xmlns="http://www.w3.org/2000/svg"><defs><symbol id="icon-logo" viewBox="0 0 23 32"><path fill="#ff6b09" style="fill:var(--color1,#ff6b09)" d="M21.909 16.593c-.284-.635-.675-1.261-1.247-1.983-1.442-1.813-1.882-5.857-1.887-5.896a.488.488 0 0 0-.337-.412.495.495 0 0 0-.518.141c-1.721 1.925-.997 4.897-.606 6.085.108.325.225.708.308 1.096.636 3.137-.592 4.558-.88 4.844-.279.078-.469.039-.645-.15-.606-.664-.807-2.841-.523-5.678a5.797 5.797 0 0 0-.039-1.581c-.598-3.486-2.791-5.722-3.349-6.507C10.651 4.283 10.494.506 10.49.472a.487.487 0 0 0-.763-.383C7.165 1.83 7.385 6.024 7.742 8.365c.083.543.244 1.096.523 1.794.992 2.497-.196 5.721-.205 5.75s-.02.053-.024.082c-.152.795-.406 1.27-.689 1.27a.327.327 0 0 1-.093-.015c-.347-.073-.528-.441-.533-.761-.02-4.136-4.17-5.527-4.214-5.542a.485.485 0 0 0-.518.146.476.476 0 0 0-.068.533c.049.102.205.548.098 2.124a18.09 18.09 0 0 1-.768 4.16C.263 21.125.42 24.175.43 24.321c.759 8.257 12.635 9.704 19.683 5.052.772-.509 1.403-1.091 1.868-1.731 2.601-3.588 1.071-8.461-.068-11.05zM3.845 24.481a.484.484 0 0 1-.46.509h-.029a.487.487 0 0 1-.489-.456c-.044-.708-.034-1.45.02-2.255a.49.49 0 0 1 .978.068 15.622 15.622 0 0 0-.02 2.133zm.239-4.296a.485.485 0 0 1-.484.427c-.02 0-.039 0-.064-.005a.488.488 0 0 1-.425-.538l.235-1.872a.494.494 0 0 1 .548-.422c.269.034.46.276.425.543l-.235 1.867zM18.602 6.633a.484.484 0 0 1-.408-.553c.03-.197.207-1.205.686-1.713.185-.196.493-.206.691-.022s.207.49.022.685c-.203.215-.376.829-.433 1.197a.489.489 0 0 1-.558.405zM.778 9.048C.684 8.687.452 8.093.229 7.899c-.203-.177-.223-.483-.045-.684s.486-.222.69-.045c.527.458.802 1.445.852 1.638a.49.49 0 0 1-.947.241z"/></symbol><symbol id="icon-wave-bg" viewBox="0 0 58 32"><path fill="#fff" style="fill:var(--color2,#fff)" d="M8.089 27.641C4.664 28.004 2.22 30.063 0 30.374V0h58.119v16.692c-1.638-.387-8.054 6.083-11.703 7.386-5.369.882-2.082-3.425-14.646 2.681s-19.642.454-23.681.882z"/></symbol><symbol id="icon-female-student" viewBox="0 0 32 32"><path fill="#ff6b09" style="fill:var(--color1,#ff6b09)" d="M10.207 21.396h11.688c.058-1.333-.038-3.544-.857-4.597l-.03-.038-1.791-.899c.039-.131.058-.251.066-.34a.62.62 0 0 0-.044-.296c-.295-.707-.921-1.079-1.264-1.237.105-.211.172-.438.205-.669a.576.576 0 0 0 .403-.415l.209-.849a.572.572 0 0 0-.194-.583c.589-1.339-.398-2.601-.451-2.667-1.069-1.156-2.419-.94-2.491-.927-1.949.408-2.701 1.902-2.276 3.653a.573.573 0 0 0-.132.524l.21.85a.573.573 0 0 0 .4.413c.06.424.239.808.503 1.117v.673c-2.797 1.432-1.025.518-3.266 1.652-.004.021-1.052 1.134-.896 4.433l.009.202zm11.282-.423h-1.924v-.808l1.272-2.913c.637 1.058.661 3.078.651 3.721zm-2.626-5.486c-.074.853-.542.595-.831 1.252a.968.968 0 0 1-.234-.87c.11-.588-.249-.763-.16-1.381l.013-.014v-.002l.099-.12c.761.332 1.127.949 1.113 1.135zm-4.082-.671a2.167 2.167 0 0 0 2.433.033c.049.486.239.583.171.941a1.69 1.69 0 0 0-.024.196l-1.31 1.476-1.675-1.888.404-.211v-.547zm-.527-1.807V10.752c.204-.377.482-.651.827-.815.925.523 1.99 1.305 2.704 2.091-.001 1.001.003 1.004-.004 1.086v.005a1.768 1.768 0 0 1-1.762 1.663 1.772 1.772 0 0 1-1.766-1.774zm-.261 2.77 2.058 2.32 1.382-1.557c.032.091.076.177.127.26l-1.508 1.886-2.249-2.813.191-.096zm4.214-3.11v-.654l.157-.18c.009.331.044-.06-.157.834zm-2.474-4.375c.084.005 1.207-.171 2.094.787.035.044.757.975.467 1.993-.099-.453-.273-1.034-.546-1.311l-.299.298c.27.274.448 1.107.515 1.539-1.239-1.297-2.838-2.118-2.86-2.132-.08.05-.757.179-1.248 1.134l-.023.046v.701l-.062.001c-.312-1.507.286-2.705 1.963-3.056zm-2.007 3.492.106.431v.453l-.177-.715c-.026-.107.053-.147.07-.168zm-.309 4.282 2.635 3.295 1.782-2.229c.194.174.287.198.698.41l-.139-.47c-.035-.119.104-.311.188-.399.188-.102.344-.247.461-.427l1.454.73-1.353 3.098v.897h-6.186v-.897l-1.354-3.098 1.812-.91zm-2.153 1.185 1.272 2.912v.808h-1.924c-.01-.643.014-2.661.651-3.72z"/><path fill="none" stroke="#ff6b09" style="stroke:var(--color1,#ff6b09)" stroke-width=".582" d="M30.545 4.284V.291H1.454v29.091h29.091v-3.993"/></symbol><symbol id="icon-mobile-learning" viewBox="0 0 32 32"><path fill="#ff6b09" style="fill:var(--color1,#ff6b09)" d="M22.375 8.412h-7.256a.858.858 0 0 0-.857.857v3.003l-5.39 2.262c-.061.026-.103.083-.107.149s.028.129.085.163l.687.411v4.384a.791.791 0 0 0-.615.771v.423c0 .097.079.176.176.176h1.231a.176.176 0 0 0 .176-.176v-.423a.793.793 0 0 0-.616-.771v-4.175l.544.325c-.017.125-.002-.218-.008 2.041 0 .743 1.903 1.141 3.838 1.163v3.421a.856.856 0 0 0 .856.856h7.256a.857.857 0 0 0 .856-.856V9.265a.862.862 0 0 0-.855-.857zM10.153 20.413v.247h-.88v-.247a.44.44 0 1 1 .88 0zm12.222 2.51h-7.256a.506.506 0 0 1-.505-.504v-1.186h8.264v1.186a.507.507 0 0 1-.503.503zm.503-2.041h-8.264v-1.883c.945-.011 3.841-.219 3.841-1.165-.001-1.419.003-1.995-.004-2.044l1.576-.944c.057-.034.089-.097.085-.163s-.046-.124-.107-.149l-5.39-2.262v-1.466h8.264v10.076zm-8.44-4.213c-.974 0-2.848.126-3.663.658.005-1.627-.056-1.521.144-1.659.506-.373 1.953-.633 3.519-.633.683 0 3.665.188 3.665.819v1.472c-.822-.537-2.687-.658-3.665-.658zm.176-7.401c0-.278.226-.505.505-.505h7.256c.279 0 .504.23.504.505v1.186h-8.264V9.268zm-.176 3.311 5.11 2.145-1.266.758c-.673-.668-2.9-.797-3.844-.797-.945 0-3.172.13-3.844.797l-1.267-.758 5.11-2.145zm-3.662 5.255c0-.284 1.258-.814 3.663-.814 2.406 0 3.665.53 3.665.814s-1.259.815-3.665.815c-2.405 0-3.663-.53-3.663-.815z"/><path fill="#ff6b09" style="fill:var(--color1,#ff6b09)" d="M18.747 21.498a.581.581 0 1 0 .001 1.163.581.581 0 0 0-.001-1.163zm0 .81a.23.23 0 1 1 0-.46.23.23 0 0 1 0 .46zM19.416 9.433h-1.339v.351h1.339v-.351z"/><path fill="none" stroke="#ff6b09" style="stroke:var(--color1,#ff6b09)" stroke-width=".627" d="M31.686 4.62V.314H.313v31.373h31.373v-4.306"/></symbol><symbol id="icon-insurance" viewBox="0 0 32 32"><path fill="#ff6b09" style="fill:var(--color1,#ff6b09)" d="M9.667 14.937c0 .168-.255.168-.255 0a6.468 6.468 0 0 1 12.934 0c0 .168-.253.168-.253 0 0-2.414-3.966-2.415-3.966 0 0 .168-.261.168-.261 0 0-2.408-3.972-2.408-3.972 0 0 .168-.261.168-.261 0 0-2.403-3.965-2.42-3.965 0zM13.654 14c.069-1.389.287-2.635.605-3.586.253-.756.574-1.33.937-1.652a6.216 6.216 0 0 0-5.427 5.046c.939-1.354 3.107-1.246 3.885.192zm4.191-.062c-.07-1.336-.282-2.531-.588-3.443-.788-2.359-1.969-2.359-2.757 0-.305.911-.516 2.107-.588 3.443.847-1.44 3.085-1.44 3.933 0zm4.143-.13a6.214 6.214 0 0 0-5.427-5.046c.365.322.684.896.937 1.652.318.951.536 2.197.605 3.586.783-1.446 2.957-1.531 3.885-.192zM15.03 17.896v-1.313c-.237.157-.423.4-.423.696 0 .289.189.479.423.617zm.255.408c-.453-.208-.931-.45-.931-1.025 0-.592.45-.889.931-1.11v2.135zM16.727 19.878v1.328c.24-.159.427-.403.427-.699 0-.292-.192-.489-.427-.629zm-.253-.409c.455.211.936.461.936 1.038 0 .594-.453.89-.936 1.11v-2.148z"/><path fill="#ff6b09" style="fill:var(--color1,#ff6b09)" d="M16.727 15.089c1.044.241 2.117 1.023 2.117 2.191 0 1-1.69.963-1.69 0 0-.298-.188-.542-.427-.699v1.869c.966.316 2.12.882 2.12 2.058 0 1.169-1.073 1.95-2.12 2.189-.005 1.113-1.695 1.111-1.698-.002-.595-.137-1.113-.415-1.487-.783-.392-.388-.624-.875-.624-1.405 0-.985 1.688-.985 1.688 0 0 .295.186.537.423.695v-1.867c-.959-.31-2.119-.893-2.119-2.058 0-1.169 1.073-1.95 2.119-2.189.005-1.113 1.695-1.111 1.698.002zm-1.442.003v.203c-.994.197-2.12.834-2.12 1.982 0 1.104 1.237 1.598 2.12 1.872v2.467c-.478-.218-.931-.513-.931-1.108 0-.65-1.182-.65-1.182 0 0 .459.205.884.55 1.223.438.434.969.64 1.563.757v.205c0 .783 1.189.783 1.189 0v-.203c.997-.198 2.119-.835 2.119-1.982 0-1.114-1.233-1.594-2.119-1.873v-2.466c.479.218.936.513.936 1.111 0 .634 1.18.66 1.18 0 0-1.147-1.121-1.785-2.116-1.983v-.205c0-.783-1.189-.783-1.189 0z"/><path fill="none" stroke="#ff6b09" style="stroke:var(--color1,#ff6b09)" stroke-width=".627" d="M31.686 4.62V.314H.313v31.373h31.373v-4.306"/></symbol><symbol id="icon-study-program" viewBox="0 0 32 32"><path fill="#ff6b09" style="fill:var(--color1,#ff6b09)" d="m29.071 6.087-.001-.002a.242.242 0 0 0-.053-.079l-4.231-4.188a.193.193 0 0 0-.036-.028l-.008-.005a.324.324 0 0 0-.032-.017l-.009-.004a.26.26 0 0 0-.087-.018H5.97a.249.249 0 0 0-.25.248V27.54a.28.28 0 0 0 .005.049l.006.02.008.026c.003.008.008.015.012.022l.011.02c.009.012.018.024.029.035l.002.003 1.906 1.886a.252.252 0 0 0 .354 0l1.729-1.711 1.729 1.711a.249.249 0 0 0 .354 0l1.729-1.711 1.729 1.711a.252.252 0 0 0 .354 0l1.729-1.711 1.729 1.711a.25.25 0 0 0 .353 0l1.73-1.711 1.729 1.711a.249.249 0 0 0 .354 0l1.729-1.711 1.73 1.711a.25.25 0 0 0 .353 0l1.906-1.886.01-.012c.007-.008.015-.016.021-.025s.01-.018.014-.026l.008-.016c.005-.011.008-.023.011-.034l.004-.012a.284.284 0 0 0 .005-.051V6.183a.26.26 0 0 0-.02-.095zm-4.212-3.496 3.377 3.343h-3.377V2.591zm3.731 24.845-1.655 1.639-1.73-1.711a.252.252 0 0 0-.353 0l-1.729 1.711-1.729-1.711a.254.254 0 0 0-.354 0l-1.73 1.711-1.728-1.71v-.001a.252.252 0 0 0-.354 0L15.5 29.075l-1.729-1.711a.254.254 0 0 0-.354 0l-1.729 1.711-1.729-1.711a.254.254 0 0 0-.354 0l-1.729 1.711-1.655-1.639V2.24h18.138v3.941c0 .137.112.248.25.248h3.98v21.007z"/><path fill="#ff6b09" style="fill:var(--color1,#ff6b09)" d="M8.085 4.583h8.19c.138 0 .25-.111.25-.248s-.112-.248-.25-.248h-8.19c-.138 0-.25.111-.25.248s.112.248.25.248zM8.085 6.114h13.134c.138 0 .25-.111.25-.248s-.112-.248-.25-.248H8.085c-.138 0-.25.111-.25.248s.112.248.25.248zM7.835 7.488v8.017c0 .137.112.248.25.248h18.639c.138 0 .25-.111.25-.248V7.488a.249.249 0 0 0-.25-.248H8.085a.249.249 0 0 0-.25.248zm5.528.248h13.111v2.131H13.363V7.736zm0 2.626h13.111v2.13H13.363v-2.13zm0 2.625h13.111v2.271H13.363v-2.271zM8.336 7.736h4.527v2.131H8.336V7.736zm0 2.626h4.527v2.13H8.336v-2.13zm0 2.625h4.527v2.271H8.336v-2.271zM26.725 16.867H8.086a.249.249 0 0 0-.25.248v8.017c0 .137.112.247.25.247s.25-.111.25-.247v-2.518h4.527v2.518c0 .137.112.247.25.247s.25-.111.25-.247v-2.518h13.111v2.518c0 .137.112.247.25.247s.25-.111.25-.247v-8.017a.248.248 0 0 0-.249-.248zm-13.862 5.251H8.336v-2.13h4.527v2.13zm0-2.625H8.336v-2.13h4.527v2.13zm13.611 2.625H13.363v-2.13h13.111v2.13zm0-2.625H13.363v-2.13h13.111v2.13zM4.535 1.745a.249.249 0 0 0-.25.248v25.546c0 .136.112.247.25.247s.25-.111.25-.247V1.993a.249.249 0 0 0-.25-.248zM3.159 1.745a.249.249 0 0 0-.25.248v25.546c0 .136.112.247.25.247s.25-.111.25-.247V1.993a.249.249 0 0 0-.25-.248z"/></symbol><symbol id="icon-mobile-learn" viewBox="0 0 32 32"><path fill="#ff6b09" style="fill:var(--color1,#ff6b09)" d="M28.09 2.327H14.666c-.874 0-1.585.707-1.585 1.576v5.526l-9.973 4.162a.323.323 0 0 0-.041.575l1.272.757v8.066a1.46 1.46 0 0 0-1.138 1.419v.778c0 .178.145.323.325.323h2.277a.325.325 0 0 0 .325-.323v-.778c0-.692-.488-1.27-1.139-1.418v-7.681l1.006.599c-.031.231-.004-.402-.014 3.755 0 1.367 3.52 2.099 7.102 2.141v6.295c0 .325.1.628.271.879.285.419.767.695 1.313.695h13.424a1.58 1.58 0 0 0 1.583-1.574c0 .043-.002-1.333 0-24.195a1.59 1.59 0 0 0-1.582-1.576zM5.478 24.408v.455H3.85v-.455a.813.813 0 0 1 1.628 0zm22.612 4.617H14.666a.937.937 0 0 1-.775-.408.918.918 0 0 1-.16-.519v-2.182h15.29v2.183a.937.937 0 0 1-.931.926zm.931-3.755H13.73v-3.464c1.749-.02 7.106-.403 7.106-2.143-.002-2.612.005-3.671-.008-3.76l2.916-1.737a.323.323 0 0 0-.041-.575L13.73 9.429V6.732h15.291v18.539zm-15.615-7.751c-1.801 0-5.27.231-6.777 1.21.01-2.993-.104-2.798.266-3.052.936-.685 3.613-1.164 6.511-1.164 1.264 0 6.781.345 6.781 1.507v2.709c-1.521-.988-4.972-1.21-6.781-1.21zm.325-13.616c0-.512.419-.929.934-.929h13.424c.515 0 .932.422.932.928v2.182h-15.29V3.902zm-.325 6.091 9.455 3.946-2.343 1.394c-1.246-1.228-5.366-1.466-7.112-1.466-1.749 0-5.869.239-7.112 1.467l-2.343-1.394 9.455-3.946zm-6.777 9.67c0-.523 2.328-1.498 6.777-1.498 4.452 0 6.781.976 6.781 1.498s-2.329 1.499-6.781 1.499c-4.449 0-6.777-.976-6.777-1.499z"/><path fill="#ff6b09" style="fill:var(--color1,#ff6b09)" d="M21.377 26.403c-.592 0-1.074.479-1.074 1.068s.482 1.069 1.074 1.069c.592 0 1.074-.479 1.074-1.069s-.482-1.068-1.074-1.068zm0 1.491c-.234 0-.425-.19-.425-.423s.191-.422.425-.422c.234 0 .425.189.425.422s-.191.423-.425.423zM22.616 4.207h-2.478v.646h2.478v-.646z"/></symbol><symbol id="icon-open-book" viewBox="0 0 32 32"><path fill="#ff6b09" style="fill:var(--color1,#ff6b09)" d="M14.717 9.194H6.274v.636h8.443v-.636zM14.717 11.566H7.538v.636h7.179v-.636zM14.717 13.939H6.274v.636h8.443v-.636zM14.717 16.311H7.538v.636h7.179v-.636zM14.717 18.683H6.274v.636h8.443v-.636zM14.717 21.055H7.538v.636h7.179v-.636zM26.308 9.194h-8.443v.636h8.443v-.636zM25.043 11.566h-7.179v.636h7.179v-.636zM26.308 13.939h-8.443v.636h8.443v-.636zM25.043 16.311h-7.179v.636h7.179v-.636zM26.308 18.683h-8.443v.636h8.443v-.636zM25.043 21.055h-7.179v.636h7.179v-.636z"/><path fill="#ff6b09" style="fill:var(--color1,#ff6b09)" d="M29.357 8.47h-1.159V6.718a.317.317 0 0 0-.316-.318h-9.449c-.922 0-1.721.502-2.141 1.253A2.442 2.442 0 0 0 14.151 6.4H4.702a.317.317 0 0 0-.316.318V8.47H3.227a.317.317 0 0 0-.316.318v17.076c0 .176.142.318.316.318h26.131a.317.317 0 0 0 .316-.318V8.788a.317.317 0 0 0-.316-.318zM18.432 7.036h9.133v17.038h-9.808a1.86 1.86 0 0 0-1.151.424V8.869a1.82 1.82 0 0 1 1.825-1.832zm-13.416 0h9.133c.988 0 1.788.774 1.821 1.762 0 .014.002.057.004.07v15.628a1.844 1.844 0 0 0-1.147-.423H5.015V7.035zm-1.475 2.07h.843v15.286c0 .176.142.318.316.318h10.128c.482 0 .948.318 1.097.835H3.541V9.106zm25.5 16.44H16.658c.15-.52.611-.835 1.101-.835h10.124a.317.317 0 0 0 .316-.318V9.107h.843v16.439z"/></symbol><symbol id="icon-union" viewBox="0 0 32 32"><path fill="#ff6b09" style="fill:var(--color1,#ff6b09)" d="M4.055 13.287v2.471c0 .133.06.258.164.34a9.574 9.574 0 0 0 5.924 2.061 9.66 9.66 0 0 0 1.912-.195c1.338.596 2.763.901 4.237.901 1.479 0 2.904-.305 4.237-.901 2.678.545 5.532-.04 7.835-1.866a.433.433 0 0 0 .164-.34v-2.471a1.05 1.05 0 0 0-.498-.896l-3.351-1.899c.733-.937 1.279-2.271 1.374-3.415.278-1.969-1.315-4.055-3.609-4.055-.965 0-1.881.4-2.554 1.071-.023.023-.05.043-.072.067-.021.022-.038.047-.058.07l-.038.046c-.656-1.204-1.916-1.948-3.4-1.948-.144 0-.286.01-.426.024-.009-.001-.016-.005-.024-.005-.08 0-.248.021-.339.047-.013.004-.023.013-.036.018a3.884 3.884 0 0 0-2.611 1.882 3.608 3.608 0 0 0-2.754-1.272c-3.386 0-4.888 4.025-2.216 7.489l-3.382 1.891c-.3.191-.479.522-.479.885zm16.465 3.726c-.073.036-.145.074-.218.107l-.002.001a9.48 9.48 0 0 1-4.009.878 9.534 9.534 0 0 1-5.783-1.944V13.55c0-.085.041-.161.089-.193l3.935-2.203c.49.419 1.115.726 1.763.726.624 0 1.299-.312 1.778-.736l3.888 2.199a.242.242 0 0 1 .113.207v2.504a9.512 9.512 0 0 1-1.554.958zm7.068-3.88c.051.032.08.088.08.154v2.258a8.613 8.613 0 0 1-5.837 1.728c.32-.201.668-.451.938-.663a.432.432 0 0 0 .164-.341v-2.718c0-.38-.189-.729-.529-.948l-2.065-1.169.502-.28c.609.5 1.132.649 1.602.649.574 0 1.178-.284 1.627-.662l3.518 1.993zm-5.144-9.245a2.79 2.79 0 0 1 2.618 1.87 3.195 3.195 0 0 1-1.938-.997.43.43 0 0 0-.683.073 3.193 3.193 0 0 1-2.207 1.536v-.003a4.378 4.378 0 0 0-.028-.57l-.006-.058a5.099 5.099 0 0 0-.105-.531c.488-.787 1.394-1.32 2.351-1.32zm-2.305 3.365a4.017 4.017 0 0 0 2.742-1.538 4.043 4.043 0 0 0 2.341.922c-.006 1.564-1.275 4.3-2.778 4.3-1.159 0-2.148-1.669-2.517-2.826.094-.298.162-.584.213-.858zm.087 3.254-.768.428-.775-.439c.287-.361.551-.779.777-1.233.217.459.477.882.766 1.244zm-1.158-2.538c-.414 1.245-1.477 3.046-2.772 3.046-1.51 0-2.795-2.5-3.04-4.098.065-.016 2.105.11 3.509-1.746.712.6 1.674.998 2.609 1.037.011.564-.125 1.227-.305 1.761zm-2.747-4.776c2.408 0 2.867 2.088 2.905 2.131a3.569 3.569 0 0 1-2.221-1.113.427.427 0 0 0-.683.075 3.534 3.534 0 0 1-3.103 1.764c.118-1.59 1.383-2.857 3.102-2.857zm-3.196 6.062c.223.449.488.878.791 1.255l-.759.425-.786-.445a6.77 6.77 0 0 0 .753-1.235zm-2.994-5.367c.974 0 1.867.498 2.365 1.321-.025.087-.092.435-.101.478a3.179 3.179 0 0 1-1.578-.927.427.427 0 0 0-.683.076A3.212 3.212 0 0 1 7.381 6.42c.137-1.42 1.315-2.531 2.75-2.531zM7.419 7.282a4.068 4.068 0 0 0 3.156-1.567c.516.428 1.129.71 1.781.839.025.502.155 1.111.303 1.561-.237.733-.692 1.606-1.257 2.187l-.012.009c-.353.375-.856.627-1.251.627-1.381 0-2.461-2.189-2.721-3.655zm-2.505 6.005c0-.066.029-.121.058-.141l3.566-1.993c.214.179.263.2.306.232.42.281.804.421 1.329.421.559 0 1.068-.239 1.516-.606.025-.02.052-.039.076-.059l.509.288-2.12 1.188a1.11 1.11 0 0 0-.506.935v2.718c0 .133.06.258.164.34.274.217.63.47.938.664a8.645 8.645 0 0 1-5.838-1.728v-2.258z"/><path fill="#ff6b09" style="fill:var(--color1,#ff6b09)" d="M29.412 20.463a1.775 1.775 0 0 0-1.739-.096l-5.302 2.58a1.834 1.834 0 0 0-1.825-1.808l-3.04.001c-1.499-1.313-3.415-2.116-5.157-2.159a212.69 212.69 0 0 0-3.979-.056v-.874H2.329v10.051H8.37v-1.204c1.657.957 6.012 3.356 8.079 3.356.047 0 .093-.001.137-.004 3.635-.205 12.209-6.282 12.775-6.686a1.817 1.817 0 0 0 .053-3.102zM7.509 27.237H3.187v-8.32h4.322v8.32zm21.407-4.414a.303.303 0 0 0-.038.024c-.089.063-8.908 6.346-12.342 6.54a1.764 1.764 0 0 1-.105.003c-1.813 0-6.233-2.402-8.064-3.492v-6.106c.716.003 2.25.015 3.959.056 1.591.038 3.358.804 4.727 2.047l.123.112 3.368-.001c.535 0 .97.438.97.976s-.435.977-.969.977h-6.188v.866h6.188c.593 0 1.116-.29 1.45-.733l6.051-2.944c.297-.146.628-.127.909.05s.44.469.44.801a.95.95 0 0 1-.479.825zM16.721 12.938h-.859v.803h.859v-.803zM16.721 14.539h-.859v.803h.859v-.803zM16.721 16.139h-.859v.802h.859v-.802z"/></symbol><symbol id="icon-student" viewBox="0 0 32 32"><path fill="#ff6b09" style="fill:var(--color1,#ff6b09)" d="M4.124 29.091h23.775c.118-2.634-.076-7.005-1.743-9.085l-.06-.075-3.643-1.777c.079-.259.118-.497.134-.671a1.204 1.204 0 0 0-.089-.585c-.601-1.397-1.873-2.132-2.572-2.446.213-.417.351-.865.417-1.323.396-.108.714-.413.819-.82l.425-1.678a1.109 1.109 0 0 0-.395-1.152c1.199-2.646-.809-5.14-.918-5.272-2.175-2.284-4.921-1.857-5.067-1.832-3.964.807-5.494 3.758-4.63 7.221a1.112 1.112 0 0 0-.268 1.035l.427 1.68c.104.404.42.708.813.817a4.267 4.267 0 0 0 1.023 2.207v1.331c-5.689 2.831-2.084 1.025-6.643 3.266-.009.042-2.139 2.241-1.823 8.761l.019.398zm22.949-.836H23.16v-1.597l2.588-5.756c1.297 2.091 1.345 6.083 1.325 7.353zm-5.34-10.843c-.151 1.685-1.102 1.176-1.689 2.474-.462-.493-.601-1.085-.477-1.719.224-1.163-.506-1.508-.326-2.73l.027-.028v-.004c.016-.017.16-.184.201-.236 1.548.656 2.293 1.875 2.263 2.243zm-8.305-1.325a4.5 4.5 0 0 0 2.519.771c.879 0 1.713-.248 2.429-.706.099.961.486 1.153.349 1.86-.026.131-.04.261-.048.388l-2.665 2.918-3.406-3.731.822-.417v-1.082zm-1.072-3.571V8.055c.415-.745.98-1.286 1.683-1.61 1.882 1.035 4.048 2.579 5.501 4.132-.001 1.979.006 1.984-.008 2.147l-.001.01c-.113 1.797-1.634 3.286-3.584 3.286-1.896 0-3.47-1.446-3.584-3.304a2.237 2.237 0 0 1-.007-.201zm-.53 5.473 4.186 4.585 2.81-3.078c.064.18.154.349.257.513l-3.068 3.728-4.575-5.559.389-.189zm8.571-6.146v-1.292l.32-.356c.018.654.09-.118-.32 1.648zm-5.032-8.646c.17.01 2.454-.338 4.26 1.556.071.087 1.541 1.926.95 3.939-.202-.896-.554-2.043-1.111-2.591l-.609.589c.55.541.911 2.188 1.048 3.042-2.521-2.563-5.774-4.186-5.818-4.213-.163.099-1.539.353-2.539 2.24l-.048.09v1.386l-.126.001c-.635-2.979.581-5.346 3.992-6.04zm-4.082 6.9.216.851v.895l-.36-1.414c-.053-.211.108-.291.143-.333zm-.63 8.464 5.359 6.512 3.626-4.406c.394.343.584.392 1.42.809l-.282-.93c-.072-.236.212-.615.383-.789.382-.201.7-.488.939-.843l2.958 1.443-2.753 6.123v1.772H9.72V26.48l-2.754-6.123 3.687-1.798zm-4.378 2.342 2.588 5.755v1.597H4.95c-.02-1.27.029-5.26 1.325-7.351z"/></symbol><symbol id="icon-audio-book" viewBox="0 0 32 32"><path fill="#ff6b09" style="fill:var(--color1,#ff6b09)" d="M3.018 26.77h9.923a3.029 3.029 0 0 0 2.743 1.74h.627c1.189 0 2.24-.682 2.743-1.74h9.928c1.023 0 1.855-.843 1.855-1.879V6.881c0-1.036-.832-1.879-1.855-1.879H27.98v-.839c0-.691-.555-1.253-1.236-1.253H5.25c-.682 0-1.236.562-1.236 1.253v.839h-.995c-1.023 0-1.855.843-1.855 1.879v18.01c0 1.036.832 1.879 1.855 1.879zm23.725-3.865H16.618V8.348c2.34.31 4.155 2.339 4.155 4.794v.565l-.147-.033c-.159-.035-.327-.006-.465.084s-.236.231-.271.393l-.984 4.538a.626.626 0 0 0 .471.745l2.127.475a1.582 1.582 0 0 0 1.881-1.226l.569-2.624a1.606 1.606 0 0 0-1.204-1.911l-.74-.165v-.841c0-3.147-2.367-5.744-5.391-6.06v-2.92h10.126l-.001 18.743zm-5.779-7.873 1.518.339c.19.043.305.226.264.418l-.569 2.624a.366.366 0 0 1-.412.272l-1.52-.34.719-3.313zM5.25 4.162h10.132v2.919c-3.027.313-5.397 2.912-5.397 6.061v.841l-.741.166a1.574 1.574 0 0 0-.992.702c-.228.361-.302.79-.211 1.207l.568 2.621a1.593 1.593 0 0 0 1.549 1.266c.112 0 .223-.012.337-.037l2.118-.474a.626.626 0 0 0 .47-.745l-.984-4.538a.618.618 0 0 0-.737-.477l-.141.032v-.564c0-2.457 1.817-4.487 4.161-4.795v14.558H5.25V4.162zm5.775 10.871.72 3.313-1.512.338a.35.35 0 0 1-.415-.27l-.569-2.627a.35.35 0 0 1 .262-.416l1.515-.339zM2.4 6.881c0-.345.277-.626.618-.626h.995v16.65c0 .691.555 1.253 1.236 1.253h21.494c.682 0 1.236-.562 1.236-1.253V6.255h1.002c.341 0 .618.281.618.626v18.01a.623.623 0 0 1-.618.626H18.632a.62.62 0 0 0-.591.443 1.805 1.805 0 0 1-1.732 1.297h-.627a1.81 1.81 0 0 1-1.734-1.304.62.62 0 0 0-.589-.435H3.017a.623.623 0 0 1-.618-.626V6.882z"/></symbol><symbol id="icon-check-mark" viewBox="0 0 40 32"><path fill="#ff6b09" style="fill:var(--color1,#ff6b09)" d="M35.296 1.514a30.274 30.274 0 0 0-4.369 2.379c-2.797 1.797-5.355 3.936-7.754 6.218-2.398 2.287-4.63 4.735-6.741 7.28-.528.636-2.892 3.47-2.892 3.47L3.71 6.481-.001 16.523 13.292 32c1.291-2.551 2.533-5.07 3.752-7.258.303-.556.62-1.08.923-1.612 0 0 1.56-2.677 1.97-3.352 1.64-2.697 3.414-5.325 5.366-7.821 1.955-2.491 4.08-4.87 6.489-6.961a29.016 29.016 0 0 1 3.842-2.872c1.364-.848 2.814-1.591 4.365-2.125-1.613.31-3.187.848-4.704 1.514z"/></symbol><symbol id="icon-vector-right" viewBox="0 0 54 32"><path fill="#ff6b09" style="fill:var(--color1,#ff6b09)" d="M2 14a2 2 0 1 0 0 4v-4zm51.414 3.414a2 2 0 0 0 0-2.828L40.686 1.858a2 2 0 1 0-2.828 2.828L49.172 16 37.858 27.314a2 2 0 1 0 2.828 2.828l12.728-12.728zM2 18h50v-4H2v4z"/></symbol><symbol id="icon-vector-left" viewBox="0 0 54 32"><path fill="#ff6b09" style="fill:var(--color1,#ff6b09)" d="M52 14a2 2 0 1 1 0 4v-4zM.586 17.414a2 2 0 0 1 0-2.828L13.314 1.858a2 2 0 1 1 2.828 2.828L4.828 16l11.314 11.314a2 2 0 1 1-2.828 2.828L.586 17.414zM52 18H2v-4h50v4z"/></symbol><symbol id="icon-facebook" viewBox="0 0 31 32"><path fill="#436eab" style="fill:var(--color3,#436eab)" d="M26.318 2.314H4.767c-.779 0-1.527.307-2.078.853s-.861 1.287-.861 2.06V26.59c0 .773.31 1.514.861 2.06s1.299.853 2.078.853h8.403v-9.244H9.313v-4.351h3.857v-3.316c0-3.772 2.265-5.856 5.735-5.856 1.662 0 3.399.294 3.399.294v3.702H20.39c-1.886 0-2.475 1.16-2.475 2.351v2.825h4.211l-.673 4.351h-3.538v9.244h8.403c.779 0 1.527-.307 2.078-.853s.861-1.287.861-2.06V5.227c0-.773-.31-1.514-.861-2.06s-1.299-.853-2.078-.853z"/></symbol><symbol id="icon-phone" viewBox="0 0 32 32"><path fill="#ff6b09" style="fill:var(--color1,#ff6b09)" d="M4.657.003a1.969 1.969 0 0 0-1.392.678L.67 3.65c.004-.009-.01-.008-.084.101a.656.656 0 0 0-.09.184C-.56 7.437.148 11.289 1.872 14.953S6.347 22.123 9.505 25c3.158 2.877 6.721 5.128 10.119 6.244s6.692 1.102 9.133-.742a.536.536 0 0 0 .075-.068c.064-.067.066-.075.056-.065l.01-.013L31.48 27.4c.742-.849.682-2.184-.134-2.956l-6.126-5.799a1.965 1.965 0 0 0-2.84.138l-2.772 3.173c-2.25-.678-4.173-1.828-6.023-3.58s-3.132-3.637-3.993-5.905l2.771-3.173c.742-.849.683-2.184-.133-2.956L6.104.542A1.962 1.962 0 0 0 4.656.003h-.001zm.058 1.301c.19-.009.383.06.541.209l6.126 5.8a.788.788 0 0 1 .05 1.104l-3.063 3.504a.667.667 0 0 0-.124.665c.93 2.641 2.429 4.807 4.493 6.761s4.275 3.304 6.889 4.018a.612.612 0 0 0 .626-.193l3.064-3.505a.716.716 0 0 1 1.06-.051l6.127 5.8a.786.786 0 0 1 .049 1.103l-2.561 2.93c-2.003 1.497-4.826 1.581-7.986.542-3.173-1.043-6.617-3.202-9.666-5.98s-5.702-6.169-7.332-9.633C1.394 10.949.809 7.483 1.696 4.428l2.502-2.862a.736.736 0 0 1 .52-.261z"/></symbol><symbol id="icon-close-menu" viewBox="0 0 30 32"><path fill="none" stroke="#fff" style="stroke:var(--color2,#fff)" stroke-linecap="round" stroke-width="3.556" d="m1.781 28.885 25.77-25.77M27.552 28.885 1.782 3.115"/></symbol><symbol id="icon-burger-menu" viewBox="0 0 53 32"><path stroke-linecap="round" stroke-width="4.571" d="M2.286 2.286h48M2.286 16h48M2.286 29.714h48"/></symbol></defs></svg>