<svg width="62" height="62" fill="none" xmlns="http://www.w3.org/2000/svg"><g clip-path="url('#clip0_1_2703')" fill="#FF6B09"><path d="M14.69 28.178c0 .446-.69.446-.69 0C14 18.693 21.837 11 31.5 11 41.167 11 49 18.693 49 28.178c0 .446-.686.446-.686 0 0-6.412-10.733-6.416-10.733 0 0 .446-.706.446-.706 0 0-6.395-10.75-6.395-10.75 0 0 .446-.706.446-.706 0 0-6.383-10.73-6.428-10.73 0Zm10.79-2.49c.187-3.69.777-7 1.637-9.526.685-2.007 1.553-3.532 2.536-4.387-7.378.79-13.352 6.281-14.686 13.402 2.54-3.597 8.407-3.31 10.514.51Zm11.341-.166c-.19-3.549-.764-6.724-1.59-9.145-2.132-6.265-5.33-6.265-7.462 0-.826 2.421-1.396 5.596-1.59 9.145 2.293-3.824 8.35-3.824 10.642 0Zm11.212-.345c-1.33-7.121-7.304-12.612-14.686-13.402.987.855 1.85 2.38 2.536 4.387.86 2.527 1.45 5.836 1.636 9.526 2.12-3.84 8.003-4.068 10.514-.511ZM29.203 36.038v-3.489c-.64.418-1.144 1.063-1.144 1.85 0 .767.512 1.273 1.144 1.639Zm.69 1.083c-1.227-.552-2.52-1.197-2.52-2.722 0-1.574 1.219-2.36 2.52-2.949v5.67ZM33.797 41.3v3.528c.649-.422 1.157-1.07 1.157-1.857 0-.775-.52-1.298-1.157-1.67Zm-.686-1.087c1.231.56 2.533 1.225 2.533 2.758 0 1.577-1.227 2.364-2.533 2.948v-5.706Z"/><path d="M33.797 28.58c2.826.64 5.73 2.716 5.73 5.818 0 2.657-4.573 2.56-4.573 0 0-.79-.508-1.44-1.157-1.857v4.964c2.615.84 5.738 2.344 5.738 5.466 0 3.107-2.904 5.179-5.738 5.815-.012 2.957-4.586 2.953-4.594-.004-1.611-.365-3.012-1.103-4.024-2.08-1.062-1.03-1.69-2.324-1.69-3.73 0-2.617 4.57-2.617 4.57 0 0 .782.504 1.427 1.144 1.844v-4.96c-2.595-.823-5.734-2.372-5.734-5.466 0-3.106 2.904-5.178 5.734-5.815.012-2.956 4.586-2.952 4.594.004Zm-3.904.007v.54c-2.69.523-5.739 2.214-5.739 5.263 0 2.932 3.347 4.246 5.739 4.972v6.553c-1.293-.58-2.52-1.362-2.52-2.944 0-1.727-3.198-1.727-3.198 0 0 1.22.554 2.348 1.487 3.248 1.186 1.152 2.624 1.7 4.23 2.012v.543c0 2.08 3.22 2.08 3.22 0v-.54c2.697-.526 5.733-2.217 5.733-5.263 0-2.96-3.338-4.233-5.734-4.976V31.446c1.297.58 2.533 1.363 2.533 2.952 0 1.683 3.193 1.752 3.193 0 0-3.045-3.032-4.74-5.726-5.267v-.544c0-2.08-3.218-2.08-3.218 0Z"/></g><path d="M61 9.235V1H1v60h60v-8.235" stroke="#FF6B09" stroke-width="2"/><defs><clipPath id="clip0_1_2703"><path fill="#fff" transform="translate(14 11)" d="M0 0h35v40H0z"/></clipPath></defs></svg>