<svg width="25" height="20" viewBox="0 0 25 20" fill="none" xmlns="http://www.w3.org/2000/svg">
<path d="M22.0602 0.946068C21.1098 1.36111 20.199 1.86789 19.3297 2.4331C17.5813 3.55612 15.9828 4.89335 14.4835 6.31946C12.9848 7.74907 11.5895 9.27892 10.2703 10.8697C9.94029 11.2674 8.46301 13.0386 8.46301 13.0386L2.31928 4.05099L0 10.327L8.30826 20C9.11504 18.4055 9.89148 16.8314 10.653 15.4638C10.8423 15.116 11.0405 14.7887 11.2299 14.4563C11.2299 14.4563 12.2049 12.7831 12.4613 12.3616C13.4866 10.6758 14.5949 9.0337 15.8153 7.47374C17.0371 5.91664 18.3653 4.43011 19.871 3.12332C20.6202 2.46562 21.4177 1.8575 22.2721 1.32829C23.1249 0.798046 24.0309 0.333722 25 0C23.9918 0.193628 23.0082 0.529888 22.0602 0.946068Z" fill="#FF6B09"/>
</svg>
