<svg width="62" height="62" viewBox="0 0 62 62" fill="none" xmlns="http://www.w3.org/2000/svg">
<g clip-path="url(#clip0_1_2703)">
<path d="M14.6899 28.1776C14.6899 28.6237 14 28.6237 14 28.1776C14 18.6926 21.837 11 31.5 11C41.1671 11 49 18.6926 49 28.1776C49 28.6237 48.3142 28.6237 48.3142 28.1776C48.3142 21.7664 37.5812 21.7624 37.5812 28.1776C37.5812 28.6237 36.8748 28.6237 36.8748 28.1776C36.8748 21.7826 26.1252 21.7826 26.1252 28.1776C26.1252 28.6237 25.4188 28.6237 25.4188 28.1776C25.4188 21.7948 14.6899 21.7502 14.6899 28.1776ZM25.4808 25.6878C25.6667 21.9976 26.2574 18.6886 27.1167 16.1622C27.8025 14.1549 28.6701 12.6302 29.6533 11.7745C22.2749 12.5653 16.3011 18.056 14.9667 25.1768C17.5074 21.5799 23.3738 21.8678 25.4808 25.6878ZM36.8211 25.5215C36.631 21.9732 36.0568 18.7981 35.2305 16.3771C33.0988 10.1119 29.9012 10.1119 27.7695 16.3771C26.9432 18.7981 26.3731 21.9732 26.1789 25.5215C28.4718 21.6975 34.5282 21.6975 36.8211 25.5215ZM48.0333 25.1768C46.703 18.056 40.7292 12.5653 33.3467 11.7745C34.334 12.6302 35.1975 14.1549 35.8833 16.1622C36.7426 18.6886 37.3333 21.9976 37.5192 25.6878C39.6386 21.8475 45.5215 21.6204 48.0333 25.1768Z" fill="#FF6B09"/>
<path d="M29.2032 36.0376V32.5494C28.5628 32.9671 28.0588 33.6121 28.0588 34.3989C28.0588 35.1655 28.5711 35.6725 29.2032 36.0376ZM29.8931 37.1205C28.6661 36.5689 27.373 35.924 27.373 34.3989C27.373 32.8252 28.5918 32.0383 29.8931 31.4502V37.1205Z" fill="#FF6B09"/>
<path d="M33.7971 41.3002V44.8281C34.4457 44.4064 34.9539 43.7576 34.9539 42.9709C34.9539 42.1963 34.4333 41.6732 33.7971 41.3002ZM33.1113 40.2134C34.3424 40.773 35.6438 41.438 35.6438 42.9709C35.6438 44.5483 34.4168 45.335 33.1113 45.919V40.2134Z" fill="#FF6B09"/>
<path d="M33.7969 28.5791C36.6227 29.2198 39.5269 31.2961 39.5269 34.3984C39.5269 37.0546 34.9536 36.9572 34.9536 34.3984C34.9536 33.6076 34.4455 32.9588 33.7969 32.5411V37.5047C36.412 38.3441 39.5352 39.8486 39.5352 42.9712C39.5352 46.0775 36.6309 48.1497 33.7969 48.7864C33.7845 51.7427 29.2112 51.7386 29.2029 48.7824C27.5917 48.4174 26.1912 47.6793 25.1791 46.702C24.1174 45.672 23.4894 44.3784 23.4894 42.9712C23.4894 40.3555 28.0586 40.3555 28.0586 42.9712C28.0586 43.7538 28.5626 44.3986 29.2029 44.8163V39.8568C26.6085 39.0335 23.4688 37.4844 23.4688 34.3903C23.4688 31.284 26.373 29.2117 29.2029 28.575C29.2153 25.6188 33.7886 25.6228 33.7969 28.5791ZM29.8929 28.5872V29.1266C27.2034 29.6497 24.1545 31.3407 24.1545 34.3903C24.1545 37.3222 27.5009 38.6361 29.8929 39.362V45.9153C28.5998 45.3354 27.3728 44.5527 27.3728 42.9712C27.3728 41.2436 24.1752 41.2436 24.1752 42.9712C24.1752 44.1918 24.7288 45.3192 25.6624 46.2194C26.8481 47.3711 28.2858 47.9186 29.8929 48.2308V48.7742C29.8929 50.8546 33.1111 50.8546 33.1111 48.7742V48.2349C35.8088 47.7077 38.8453 46.0167 38.8453 42.9712C38.8453 40.0109 35.5072 38.7375 33.1111 37.9954V31.9693V31.4462C34.4083 32.0261 35.6436 32.8087 35.6436 34.3984C35.6436 36.0813 38.837 36.1503 38.837 34.3984C38.837 31.3529 35.8047 29.6578 33.1111 29.1306V28.5872C33.1111 26.5069 29.8929 26.5069 29.8929 28.5872Z" fill="#FF6B09"/>
</g>
<path d="M61 9.23529V1H1V61H61V52.7647" stroke="#FF6B09" stroke-width="2"/>
<defs>
<clipPath id="clip0_1_2703">
<rect width="35" height="40" fill="white" transform="translate(14 11)"/>
</clipPath>
</defs>
</svg>
