<svg width="102" height="102" viewBox="0 0 102 102" fill="none" xmlns="http://www.w3.org/2000/svg">
<g clip-path="url(#clip0_1_3438)">
<path d="M30.8127 47.6131C30.8127 48.1484 30 48.1484 30 47.6131C30 36.2311 39.2311 27 50.6131 27C62 27 71.2263 36.2311 71.2263 47.6131C71.2263 48.1484 70.4185 48.1484 70.4185 47.6131C70.4185 39.9197 57.7762 39.9148 57.7762 47.6131C57.7762 48.1484 56.944 48.1484 56.944 47.6131C56.944 39.9392 44.2822 39.9392 44.2822 47.6131C44.2822 48.1484 43.4501 48.1484 43.4501 47.6131C43.4501 39.9538 30.8127 39.9002 30.8127 47.6131ZM43.5231 44.6253C43.7421 40.1971 44.438 36.2263 45.4501 33.1946C46.2579 30.7859 47.2798 28.9562 48.438 27.9294C39.747 28.8783 32.7105 35.4672 31.1387 44.0122C34.1314 39.6959 41.0414 40.0414 43.5231 44.6253ZM56.8808 44.4258C56.6569 40.1679 55.9805 36.3577 55.0073 33.4526C52.4963 25.9343 48.7299 25.9343 46.219 33.4526C45.2457 36.3577 44.5742 40.1679 44.3455 44.4258C47.0462 39.837 54.18 39.837 56.8808 44.4258ZM70.0876 44.0122C68.5207 35.4672 61.4842 28.8783 52.7883 27.9294C53.9513 28.9562 54.9684 30.7859 55.7762 33.1946C56.7883 36.2263 57.4842 40.1971 57.7032 44.6253C60.1995 40.017 67.1289 39.7445 70.0876 44.0122Z" fill="#FF6B09"/>
<path d="M47.9077 57.0449V52.8591C47.1534 53.3604 46.5597 54.1343 46.5597 55.0785C46.5597 55.9984 47.1631 56.6068 47.9077 57.0449ZM48.7203 58.3444C47.2751 57.6825 45.752 56.9086 45.752 55.0785C45.752 53.19 47.1875 52.2458 48.7203 51.54V58.3444Z" fill="#FF6B09"/>
<path d="M53.3185 63.36V67.5936C54.0825 67.0875 54.6811 66.309 54.6811 65.3649C54.6811 64.4355 54.0679 63.8077 53.3185 63.36ZM52.5107 62.0559C53.9609 62.7274 55.4937 63.5255 55.4937 65.3649C55.4937 67.2579 54.0485 68.2019 52.5107 68.9026V62.0559Z" fill="#FF6B09"/>
<path d="M53.3188 48.095C56.6472 48.8638 60.0682 51.3554 60.0682 55.0781C60.0682 58.2655 54.6813 58.1487 54.6813 55.0781C54.6813 54.1292 54.0828 53.3506 53.3188 52.8493V58.8057C56.3991 59.813 60.0779 61.6184 60.0779 65.3655C60.0779 69.0931 56.657 71.5797 53.3188 72.3437C53.3042 75.8913 47.9173 75.8864 47.9076 72.3389C46.0098 71.9009 44.3601 71.0152 43.1679 69.8425C41.9173 68.6064 41.1777 67.0541 41.1777 65.3655C41.1777 62.2267 46.5596 62.2267 46.5596 65.3655C46.5596 66.3047 47.1533 67.0784 47.9076 67.5796V61.6282C44.8516 60.6403 41.1533 58.7814 41.1533 55.0684C41.1533 51.3408 44.5742 48.8541 47.9076 48.0901C47.9222 44.5426 53.309 44.5474 53.3188 48.095ZM48.7202 48.1047V48.7519C45.5523 49.3797 41.9611 51.4089 41.9611 55.0684C41.9611 58.5867 45.9027 60.1634 48.7202 61.0345V68.8984C47.1971 68.2025 45.7519 67.2633 45.7519 65.3655C45.7519 63.2924 41.9854 63.2924 41.9854 65.3655C41.9854 66.8302 42.6375 68.1831 43.7373 69.2634C45.1339 70.6454 46.8273 71.3024 48.7202 71.6771V72.3291C48.7202 74.8256 52.511 74.8256 52.511 72.3291V71.6819C55.6886 71.0493 59.2652 69.0201 59.2652 65.3655C59.2652 61.8131 55.3334 60.2851 52.511 59.3945V52.1632V51.5354C54.039 52.2313 55.494 53.1705 55.494 55.0781C55.494 57.0976 59.2555 57.1804 59.2555 55.0781C59.2555 51.4235 55.6837 49.3894 52.511 48.7568V48.1047C52.511 45.6083 48.7202 45.6083 48.7202 48.1047Z" fill="#FF6B09"/>
</g>
<path d="M101 14.7255V1H1V101H101V87.2745" stroke="#FF6B09" stroke-width="2"/>
<defs>
<clipPath id="clip0_1_3438">
<rect width="42" height="48" fill="white" transform="translate(30 27)"/>
</clipPath>
</defs>
</svg>
