<svg width="62" height="62" viewBox="0 0 62 62" fill="none" xmlns="http://www.w3.org/2000/svg">
<g clip-path="url(#clip0_1_2694)">
<path d="M48.9589 10H28.7228C27.4055 10 26.3339 11.0683 26.3339 12.3817V20.7328L11.3002 27.0236C11.13 27.0948 11.0143 27.2549 11.0012 27.4386C10.9882 27.6223 11.0793 27.7977 11.2377 27.8924L13.155 29.0364V41.2272C12.1746 41.4501 11.4389 42.3249 11.4389 43.3716V44.5467C11.4389 44.8162 11.6582 45.0348 11.9285 45.0348H15.3616C15.6319 45.0348 15.8512 44.8162 15.8512 44.5467V43.3716C15.8512 42.3263 15.1154 41.4527 14.1341 41.2284V29.6206L15.65 30.5252C15.6034 30.8737 15.6441 29.9178 15.6284 36.2008C15.6284 38.2661 20.9347 39.3725 26.3339 39.4359V48.9497C26.3339 49.4412 26.4848 49.8982 26.7428 50.2775C27.1722 50.9107 27.8989 51.3279 28.7215 51.3279H48.9577C50.2737 51.3279 51.3444 50.2602 51.3444 48.9485C51.3443 49.0136 51.3417 46.9332 51.3444 12.382C51.3444 11.0865 50.2699 10 48.9589 10ZM14.872 43.3716V44.0586H12.418V43.3716C12.418 42.6954 12.9672 42.145 13.642 42.145C14.3203 42.145 14.872 42.6954 14.872 43.3716ZM48.9589 50.3492H28.7228C28.2373 50.3492 27.8083 50.1042 27.5547 49.7323C27.4028 49.5083 27.314 49.2385 27.314 48.9485V45.6507H50.3627V48.9497C50.3627 49.7142 49.7236 50.3492 48.9589 50.3492ZM50.3627 44.6745H27.313V39.4389C29.9492 39.4088 38.0249 38.83 38.0249 36.2008C38.022 32.2538 38.0319 30.6533 38.0125 30.5178L42.4088 27.8924C42.5673 27.7977 42.6584 27.6223 42.6453 27.4386C42.6323 27.2549 42.5166 27.0948 42.3464 27.0236L27.313 20.7327V16.656H50.3627V44.6745ZM26.8234 32.9602C24.1078 32.9602 18.8791 33.3098 16.6075 34.7886C16.622 30.2655 16.4501 30.5601 17.0088 30.1765C18.4199 29.1406 22.4558 28.4173 26.8234 28.4173C28.7285 28.4173 37.0457 28.9395 37.0457 30.6951V34.7893C34.7529 33.2967 29.5507 32.9602 26.8234 32.9602ZM27.314 12.382C27.314 11.6082 27.9454 10.9787 28.7215 10.9787H48.9577C49.7345 10.9787 50.3627 11.6171 50.3627 12.3817V15.6798H27.314V12.382ZM26.8234 21.5865L41.0759 27.5505L37.5444 29.6574C35.6668 27.8011 29.4561 27.4411 26.8234 27.4411C24.1873 27.4411 17.9762 27.8022 16.1027 29.6579L12.5701 27.5505L26.8234 21.5865ZM16.6075 36.2008C16.6075 35.4108 20.1162 33.9364 26.8234 33.9364C33.5348 33.9364 37.0457 35.4108 37.0457 36.2008C37.0457 36.9914 33.5348 38.4659 26.8234 38.4659C20.1162 38.4659 16.6075 36.9914 16.6075 36.2008Z" fill="#FF6B09"/>
<path d="M38.8399 46.3867C37.9471 46.3867 37.2207 47.1106 37.2207 48.001C37.2207 48.8914 37.9471 49.6159 38.8399 49.6159C39.733 49.6159 40.4594 48.8914 40.4594 48.001C40.4594 47.1106 39.733 46.3867 38.8399 46.3867ZM38.8399 48.6397C38.4871 48.6397 38.1999 48.3531 38.1999 48.001C38.1999 47.6489 38.4871 47.3629 38.8399 47.3629C39.1931 47.3629 39.4802 47.6489 39.4802 48.001C39.4802 48.3531 39.1931 48.6397 38.8399 48.6397Z" fill="#FF6B09"/>
<path d="M40.7076 12.8411H36.9727V13.8173H40.7076V12.8411Z" fill="#FF6B09"/>
</g>
<path d="M61 9.23529V1H1V61H61V52.7647" stroke="#FF6B09" stroke-width="2"/>
<defs>
<clipPath id="clip0_1_2694">
<rect width="42" height="41" fill="white" transform="translate(10 10)"/>
</clipPath>
</defs>
</svg>
