<svg aria-hidden="true" style="position: absolute; width: 0; height: 0; overflow: hidden;" version="1.1"
   xmlns="http://www.w3.org/2000/svg" xmlns:xlink="http://www.w3.org/1999/xlink">
   <defs>
      <!--LOGO-->

      <symbol id="icon-fire" viewBox="0 0 23 32">
         <path fill="#ff6b09" style="fill: var(--color1, #ff6b09)"
            d="M21.909 16.593c-0.284-0.635-0.675-1.261-1.247-1.983-1.442-1.813-1.882-5.857-1.887-5.896-0.020-0.194-0.156-0.354-0.337-0.412-0.186-0.058-0.386-0.005-0.518 0.141-1.721 1.925-0.997 4.897-0.606 6.085 0.108 0.325 0.225 0.708 0.308 1.096 0.636 3.137-0.592 4.558-0.88 4.844-0.279 0.078-0.469 0.039-0.645-0.15-0.606-0.664-0.807-2.841-0.523-5.678 0.059-0.577 0.044-1.096-0.039-1.581-0.598-3.486-2.791-5.722-3.349-6.507-1.535-2.269-1.692-6.046-1.696-6.080-0.005-0.179-0.108-0.339-0.269-0.417-0.156-0.078-0.347-0.068-0.494 0.034-2.562 1.741-2.342 5.935-1.985 8.276 0.083 0.543 0.244 1.096 0.523 1.794 0.992 2.497-0.196 5.721-0.205 5.75s-0.020 0.053-0.024 0.082c-0.152 0.795-0.406 1.27-0.689 1.27-0.029 0-0.059-0.005-0.093-0.015-0.347-0.073-0.528-0.441-0.533-0.761-0.020-4.136-4.17-5.527-4.214-5.542-0.186-0.058-0.391-0.005-0.518 0.145-0.132 0.15-0.156 0.359-0.068 0.533 0.049 0.102 0.205 0.548 0.098 2.124-0.093 1.416-0.352 2.817-0.768 4.16-0.988 3.219-0.831 6.269-0.821 6.415 0.759 8.257 12.635 9.704 19.683 5.052 0.772-0.509 1.403-1.091 1.868-1.731 2.601-3.588 1.071-8.461-0.068-11.050zM3.845 24.481c0.015 0.267-0.191 0.494-0.46 0.509h-0.029c-0.259 0-0.474-0.199-0.489-0.456-0.044-0.708-0.034-1.45 0.020-2.255 0.020-0.267 0.254-0.465 0.523-0.451 0.269 0.019 0.474 0.252 0.455 0.519-0.054 0.766-0.064 1.464-0.020 2.133zM4.084 20.186c-0.029 0.247-0.24 0.427-0.484 0.427-0.020 0-0.039 0-0.064-0.005-0.264-0.034-0.455-0.272-0.425-0.538l0.235-1.871c0.034-0.262 0.274-0.451 0.548-0.422 0.269 0.034 0.46 0.276 0.425 0.543l-0.235 1.867z">
         </path>
         <path fill="#ff6b09" style="fill: var(--color1, #ff6b09)"
            d="M18.602 6.633c-0.267-0.041-0.45-0.288-0.408-0.553 0.030-0.197 0.207-1.205 0.686-1.713 0.185-0.196 0.493-0.206 0.691-0.022s0.207 0.49 0.022 0.685c-0.203 0.215-0.376 0.829-0.433 1.197-0.041 0.262-0.287 0.445-0.558 0.405z">
         </path>
         <path fill="#ff6b09" style="fill: var(--color1, #ff6b09)"
            d="M0.778 9.048c-0.094-0.361-0.326-0.955-0.549-1.149-0.203-0.177-0.223-0.483-0.045-0.684s0.486-0.222 0.69-0.045c0.527 0.458 0.802 1.445 0.852 1.638 0.067 0.259-0.091 0.523-0.352 0.59-0.267 0.067-0.529-0.094-0.595-0.349z">
         </path>
      </symbol>


      <symbol id="icon-logo" viewBox="0 0 91 32">
         <path style=""
            d="M13.608 4.836v12.942h-3.661v-5.047h-4.992v5.047h-3.661v-12.942h3.661v4.863h4.992v-4.863h3.661zM27.006 12.786c0 0.025-0.018 0.314-0.055 0.869h-7.285c0.148 0.518 0.431 0.918 0.851 1.202 0.431 0.271 0.968 0.407 1.609 0.407 0.481 0 0.894-0.068 1.239-0.203 0.357-0.136 0.715-0.357 1.072-0.666l1.849 1.923c-0.974 1.085-2.397 1.627-4.271 1.627-1.171 0-2.2-0.222-3.088-0.666s-1.578-1.060-2.071-1.849c-0.481-0.789-0.721-1.683-0.721-2.681 0-0.986 0.234-1.867 0.703-2.644 0.481-0.789 1.14-1.405 1.978-1.849s1.781-0.666 2.829-0.666c0.998 0 1.904 0.21 2.718 0.629 0.814 0.407 1.454 1.005 1.923 1.793 0.481 0.777 0.721 1.701 0.721 2.773zM21.663 10.086c-0.542 0-0.998 0.154-1.368 0.462-0.357 0.308-0.586 0.727-0.684 1.257h4.105c-0.099-0.53-0.333-0.949-0.703-1.257-0.357-0.308-0.807-0.462-1.35-0.462zM29.365 4.059h3.513v13.719h-3.513v-13.719zM35.901 4.059h3.513v13.719h-3.513v-13.719z">
         </path>
         <path fill="#ff6b09" style="fill: var(--color2, #ff6b09)"
            d="M4.625 26.596h0.922v3.982h-0.922v-3.982zM2.816 30.578h-0.922v-3.982h0.922v3.982zM4.693 28.945h-1.946v-0.779h1.946v0.779zM8.36 28.2h1.917v0.717h-1.917v-0.717zM8.429 29.838h2.167v0.74h-3.083v-3.982h3.009v0.74h-2.094v2.503zM12.354 30.578v-3.982h0.922v3.231h1.997v0.751h-2.918zM16.811 30.578v-3.982h0.922v3.231h1.997v0.751h-2.918zM21.268 30.578v-3.982h0.922v3.982h-0.922zM25.467 30.646c-0.319 0-0.624-0.042-0.916-0.125-0.292-0.087-0.527-0.199-0.705-0.336l0.313-0.694c0.171 0.121 0.372 0.222 0.603 0.302 0.235 0.076 0.472 0.114 0.711 0.114 0.182 0 0.328-0.017 0.438-0.051 0.114-0.038 0.197-0.089 0.25-0.154s0.080-0.138 0.080-0.222c0-0.106-0.042-0.19-0.125-0.25-0.084-0.064-0.193-0.116-0.33-0.154-0.137-0.042-0.288-0.080-0.455-0.114-0.163-0.038-0.328-0.083-0.495-0.137-0.163-0.053-0.313-0.121-0.449-0.205s-0.248-0.193-0.336-0.33c-0.084-0.137-0.125-0.311-0.125-0.523 0-0.228 0.061-0.434 0.182-0.62 0.125-0.19 0.311-0.339 0.558-0.449 0.25-0.114 0.563-0.171 0.939-0.171 0.25 0 0.497 0.030 0.74 0.091 0.243 0.057 0.457 0.144 0.643 0.262l-0.284 0.7c-0.186-0.106-0.372-0.184-0.558-0.233-0.186-0.053-0.368-0.080-0.546-0.080s-0.324 0.021-0.438 0.063-0.195 0.097-0.245 0.165c-0.049 0.064-0.074 0.14-0.074 0.228 0 0.102 0.042 0.186 0.125 0.25 0.083 0.061 0.193 0.11 0.33 0.148s0.286 0.076 0.449 0.114c0.167 0.038 0.332 0.082 0.495 0.131 0.167 0.049 0.319 0.116 0.455 0.199s0.246 0.193 0.33 0.33c0.087 0.137 0.131 0.309 0.131 0.518 0 0.224-0.063 0.429-0.188 0.614s-0.313 0.336-0.563 0.449c-0.247 0.114-0.559 0.171-0.939 0.171zM31.541 26.596h0.922v3.982h-0.922v-3.982zM29.732 30.578h-0.922v-3.982h0.922v3.982zM31.61 28.945h-1.946v-0.779h1.946v0.779z">
         </path>
         <path style=""
            d="M37.912 28.2h1.917v0.717h-1.917v-0.717zM37.98 29.838h2.167v0.74h-3.083v-3.982h3.009v0.74h-2.093v2.503zM41.905 30.578v-3.982h0.762l2.349 2.867h-0.37v-2.867h0.91v3.982h-0.757l-2.355-2.867h0.37v2.867h-0.91zM49.446 30.646c-0.315 0-0.605-0.049-0.87-0.148-0.262-0.102-0.491-0.247-0.688-0.432-0.193-0.186-0.345-0.404-0.455-0.654-0.106-0.25-0.159-0.525-0.159-0.825s0.053-0.575 0.159-0.825c0.11-0.25 0.264-0.468 0.461-0.654s0.429-0.328 0.694-0.427c0.266-0.102 0.557-0.154 0.876-0.154 0.353 0 0.669 0.059 0.95 0.176 0.284 0.118 0.523 0.288 0.717 0.512l-0.592 0.546c-0.144-0.152-0.301-0.264-0.472-0.336-0.171-0.076-0.356-0.114-0.557-0.114-0.193 0-0.37 0.030-0.529 0.091s-0.298 0.148-0.415 0.262c-0.114 0.114-0.203 0.248-0.267 0.404-0.061 0.156-0.091 0.328-0.091 0.518 0 0.186 0.030 0.356 0.091 0.512 0.065 0.156 0.154 0.292 0.267 0.41 0.118 0.114 0.254 0.201 0.41 0.262 0.159 0.061 0.334 0.091 0.523 0.091 0.182 0 0.358-0.028 0.529-0.085 0.175-0.061 0.343-0.161 0.506-0.302l0.523 0.666c-0.216 0.163-0.468 0.288-0.757 0.375-0.284 0.087-0.569 0.131-0.853 0.131zM50.214 30.020v-1.496h0.842v1.616l-0.842-0.119zM52.936 30.578v-3.982h0.922v3.231h1.997v0.751h-2.918zM57.394 30.578v-3.982h0.922v3.982h-0.922zM61.593 30.646c-0.319 0-0.624-0.042-0.916-0.125-0.292-0.087-0.527-0.199-0.705-0.336l0.313-0.694c0.171 0.121 0.372 0.222 0.603 0.302 0.235 0.076 0.472 0.114 0.711 0.114 0.182 0 0.328-0.017 0.438-0.051 0.114-0.038 0.197-0.089 0.25-0.154s0.080-0.138 0.080-0.222c0-0.106-0.042-0.19-0.125-0.25-0.083-0.064-0.193-0.116-0.33-0.154-0.137-0.042-0.288-0.080-0.455-0.114-0.163-0.038-0.328-0.083-0.495-0.137-0.163-0.053-0.313-0.121-0.449-0.205s-0.248-0.193-0.336-0.33c-0.083-0.137-0.125-0.311-0.125-0.523 0-0.228 0.061-0.434 0.182-0.62 0.125-0.19 0.311-0.339 0.557-0.449 0.25-0.114 0.563-0.171 0.939-0.171 0.25 0 0.497 0.030 0.74 0.091 0.243 0.057 0.457 0.144 0.643 0.262l-0.284 0.7c-0.186-0.106-0.372-0.184-0.557-0.233-0.186-0.053-0.368-0.080-0.546-0.080s-0.324 0.021-0.438 0.063-0.195 0.097-0.245 0.165c-0.049 0.064-0.074 0.14-0.074 0.228 0 0.102 0.042 0.186 0.125 0.25 0.084 0.061 0.193 0.11 0.33 0.148s0.286 0.076 0.449 0.114c0.167 0.038 0.332 0.082 0.495 0.131 0.167 0.049 0.319 0.116 0.455 0.199s0.247 0.193 0.33 0.33c0.087 0.137 0.131 0.309 0.131 0.518 0 0.224-0.063 0.429-0.188 0.614s-0.313 0.336-0.563 0.449c-0.246 0.114-0.559 0.171-0.939 0.171zM67.667 26.596h0.922v3.982h-0.922v-3.982zM65.858 30.578h-0.922v-3.982h0.922v3.982zM67.735 28.945h-1.946v-0.779h1.946v0.779z">
         </path>
         <path style=""
            d="M67.237 9.846h6.009v2.736h-6.009v-2.736zM67.496 14.949h6.767v2.829h-10.391v-12.942h10.15v2.829h-6.527v7.285zM77.034 17.778v-12.942h3.014l7.137 8.616h-1.424v-8.616h3.587v12.942h-3.014l-7.137-8.616h1.424v8.616h-3.587z">
         </path>
         <path fill="#ff6b09" style="fill: var(--color2, #ff6b09)"
            d="M58.695 11.062c-0.189-0.423-0.45-0.84-0.831-1.322-0.962-1.209-1.255-3.905-1.258-3.931-0.013-0.129-0.104-0.236-0.225-0.275-0.124-0.039-0.257-0.003-0.345 0.094-1.147 1.283-0.665 3.265-0.404 4.057 0.072 0.217 0.15 0.472 0.205 0.731 0.424 2.091-0.394 3.038-0.587 3.229-0.186 0.052-0.313 0.026-0.43-0.1-0.404-0.443-0.538-1.894-0.349-3.785 0.039-0.385 0.029-0.731-0.026-1.054-0.399-2.324-1.86-3.815-2.233-4.338-1.023-1.513-1.128-4.031-1.131-4.053-0.003-0.12-0.072-0.226-0.179-0.278-0.104-0.052-0.231-0.045-0.329 0.023-1.708 1.16-1.561 3.956-1.323 5.518 0.055 0.362 0.163 0.731 0.349 1.196 0.662 1.665-0.13 3.814-0.137 3.834s-0.013 0.036-0.016 0.055c-0.101 0.53-0.271 0.847-0.46 0.847-0.020 0-0.039-0.003-0.062-0.010-0.231-0.049-0.352-0.294-0.355-0.507-0.013-2.757-2.78-3.685-2.809-3.695-0.124-0.039-0.261-0.003-0.345 0.097-0.088 0.1-0.104 0.239-0.046 0.356 0.033 0.068 0.137 0.365 0.065 1.416-0.062 0.944-0.235 1.878-0.512 2.773-0.658 2.146-0.554 4.179-0.548 4.276 0.506 5.505 8.423 6.469 13.122 3.368 0.515-0.339 0.935-0.727 1.245-1.154 1.734-2.392 0.714-5.64-0.046-7.366zM46.652 16.321c0.010 0.178-0.127 0.33-0.306 0.339h-0.020c-0.173 0-0.316-0.133-0.326-0.304-0.029-0.472-0.023-0.966 0.013-1.503 0.013-0.178 0.169-0.31 0.349-0.301 0.179 0.013 0.316 0.168 0.303 0.346-0.036 0.511-0.042 0.976-0.013 1.422zM46.812 13.457c-0.020 0.165-0.16 0.284-0.323 0.284-0.013 0-0.026 0-0.042-0.003-0.176-0.023-0.303-0.181-0.284-0.359l0.156-1.248c0.023-0.175 0.183-0.301 0.365-0.281 0.179 0.023 0.306 0.184 0.284 0.362l-0.156 1.244z">
         </path>
         <path fill="#ff6b09" style="fill: var(--color2, #ff6b09)"
            d="M56.49 4.422c-0.178-0.027-0.3-0.192-0.272-0.368 0.020-0.131 0.138-0.804 0.458-1.142 0.123-0.13 0.329-0.137 0.461-0.015s0.138 0.327 0.015 0.457c-0.135 0.143-0.25 0.553-0.289 0.798-0.028 0.174-0.191 0.297-0.372 0.27z">
         </path>
         <path fill="#ff6b09" style="fill: var(--color2, #ff6b09)"
            d="M44.608 6.032c-0.062-0.24-0.217-0.637-0.366-0.766-0.135-0.118-0.149-0.322-0.030-0.456s0.324-0.148 0.46-0.030c0.351 0.305 0.535 0.963 0.568 1.092 0.045 0.173-0.060 0.349-0.235 0.393-0.178 0.044-0.353-0.063-0.397-0.232z">
         </path>
      </symbol>

      <!--Hero-->

      <symbol id="icon-wave-bg" viewBox="0 0 58 32">
         <path fill="#fff" style="fill: var(--color2, #fff)"
            d="M8.089 27.641c-3.425 0.363-5.869 2.422-8.089 2.733v-30.374h58.119v16.692c-1.638-0.387-8.054 6.083-11.703 7.386-5.369 0.882-2.082-3.425-14.646 2.681s-19.642 0.454-23.681 0.882z">
         </path>
      </symbol>

      <symbol id="icon-wave-tablet" viewBox="0 0 45 32">
         <path fill="#fff" style="fill: var(--color1, #fff)"
            d="M6.253 27.359c-2.648 0.251-4.537 1.676-6.253 1.892v-29.25h44.929v19.78c-1.267-0.268-6.226 4.211-9.047 5.113-4.151 0.611-1.61-2.371-11.322 1.856s-15.184 0.314-18.307 0.611z">
         </path>
      </symbol>

      <!--Advantages-->

      <symbol id="icon-female-student" viewBox="0 0 32 32">
         <path fill="#ff6b09" style="fill: var(--color1, #ff6b09)"
            d="M10.207 21.396c1.502 0 10.188 0 11.688 0 0.058-1.333-0.038-3.544-0.857-4.597l-0.030-0.038-1.791-0.899c0.039-0.131 0.058-0.251 0.066-0.34 0.009-0.106-0.006-0.206-0.044-0.296-0.295-0.707-0.921-1.079-1.264-1.237 0.105-0.211 0.172-0.438 0.205-0.669 0.195-0.055 0.351-0.209 0.403-0.415l0.209-0.849c0.037-0.15 0.014-0.305-0.066-0.437-0.034-0.057-0.079-0.105-0.128-0.146 0.589-1.339-0.398-2.601-0.451-2.667-1.069-1.156-2.419-0.94-2.491-0.927-1.949 0.408-2.701 1.902-2.276 3.653-0.126 0.139-0.179 0.333-0.132 0.524l0.21 0.85c0.051 0.204 0.206 0.358 0.4 0.413 0.060 0.424 0.239 0.808 0.503 1.117v0.673c-2.797 1.432-1.025 0.518-3.266 1.652-0.004 0.021-1.052 1.134-0.896 4.433l0.009 0.202zM21.489 20.973h-1.924v-0.808l1.272-2.913c0.637 1.058 0.661 3.078 0.651 3.721zM18.863 15.487c-0.074 0.853-0.542 0.595-0.831 1.252-0.227-0.25-0.295-0.549-0.234-0.87 0.11-0.588-0.249-0.763-0.16-1.381l0.013-0.014v-0.002c0.008-0.009 0.078-0.093 0.099-0.12 0.761 0.332 1.127 0.949 1.113 1.135zM14.781 14.816c0.353 0.245 0.78 0.39 1.239 0.39 0.432 0 0.842-0.126 1.194-0.357 0.049 0.486 0.239 0.583 0.171 0.941-0.013 0.066-0.019 0.132-0.024 0.196l-1.31 1.476-1.675-1.888 0.404-0.211v-0.547zM14.254 13.009v-0.819c0-0.301 0-1.497 0-1.438 0.204-0.377 0.482-0.651 0.827-0.815 0.925 0.523 1.99 1.305 2.704 2.091-0.001 1.001 0.003 1.004-0.004 1.086l-0 0.005c-0.056 0.909-0.803 1.663-1.762 1.663-0.932 0-1.706-0.732-1.762-1.672-0.003-0.034-0.004-0.067-0.004-0.102zM13.993 15.779l2.058 2.32 1.382-1.557c0.032 0.091 0.076 0.177 0.127 0.26l-1.508 1.886-2.249-2.813 0.191-0.096zM18.207 12.669v-0.654c0.019-0.021 0.176-0.201 0.157-0.18 0.009 0.331 0.044-0.060-0.157 0.834zM15.733 8.294c0.084 0.005 1.207-0.171 2.094 0.787 0.035 0.044 0.757 0.975 0.467 1.993-0.099-0.453-0.273-1.034-0.546-1.311l-0.299 0.298c0.27 0.274 0.448 1.107 0.515 1.539-1.239-1.297-2.838-2.118-2.86-2.132-0.080 0.050-0.757 0.179-1.248 1.134l-0.023 0.046v0.701c-0.021 0-0.083 0.001-0.062 0.001-0.312-1.507 0.286-2.705 1.963-3.056zM13.726 11.786l0.106 0.431v0.453l-0.177-0.715c-0.026-0.107 0.053-0.147 0.070-0.168zM13.417 16.068l2.635 3.295 1.782-2.229c0.194 0.174 0.287 0.198 0.698 0.41l-0.139-0.47c-0.035-0.119 0.104-0.311 0.188-0.399 0.188-0.102 0.344-0.247 0.461-0.427l1.454 0.73-1.353 3.098v0.897h-6.186v-0.897l-1.354-3.098 1.812-0.91zM11.264 17.253l1.272 2.912v0.808h-1.924c-0.010-0.643 0.014-2.661 0.651-3.72z">
         </path>
         <path fill="none" stroke="#ff6b09" style="stroke: var(--color1, #ff6b09)" stroke-linejoin="miter"
            stroke-linecap="butt" stroke-miterlimit="4" stroke-width="0.5818"
            d="M30.545 4.284v-3.993h-29.091v29.091h29.091v-3.993"></path>
      </symbol>

      <symbol id="icon-mobile-learning" viewBox="0 0 32 32">
         <path fill="#ff6b09" style="fill: var(--color1, #ff6b09)"
            d="M22.375 8.412h-7.256c-0.472 0-0.857 0.384-0.857 0.857v3.003l-5.39 2.262c-0.061 0.026-0.103 0.083-0.107 0.149s0.028 0.129 0.085 0.163l0.687 0.411v4.384c-0.352 0.080-0.615 0.395-0.615 0.771v0.423c0 0.097 0.079 0.176 0.176 0.176h1.231c0.097 0 0.176-0.079 0.176-0.176v-0.423c0-0.376-0.264-0.69-0.616-0.771v-4.175l0.544 0.325c-0.017 0.125-0.002-0.218-0.008 2.041 0 0.743 1.903 1.141 3.838 1.163v3.421c0 0.177 0.054 0.341 0.147 0.478 0.154 0.228 0.415 0.378 0.709 0.378h7.256c0.472 0 0.856-0.384 0.856-0.856 0 0.023-0.001-0.725 0-13.151 0-0.466-0.385-0.857-0.855-0.857zM10.153 20.413v0.247h-0.88v-0.247c0-0.243 0.197-0.441 0.439-0.441 0.243 0 0.441 0.198 0.441 0.441zM22.375 22.923h-7.256c-0.174 0-0.328-0.088-0.419-0.222-0.054-0.081-0.086-0.178-0.086-0.282v-1.186h8.264v1.186c0 0.275-0.229 0.503-0.503 0.503zM22.878 20.882h-8.264v-1.883c0.945-0.011 3.841-0.219 3.841-1.165-0.001-1.419 0.003-1.995-0.004-2.044l1.576-0.944c0.057-0.034 0.089-0.097 0.085-0.163s-0.046-0.124-0.107-0.149l-5.39-2.262v-1.466h8.264v10.076zM14.438 16.669c-0.974 0-2.848 0.126-3.663 0.658 0.005-1.627-0.056-1.521 0.144-1.659 0.506-0.373 1.953-0.633 3.519-0.633 0.683 0 3.665 0.188 3.665 0.819v1.472c-0.822-0.537-2.687-0.658-3.665-0.658zM14.614 9.268c0-0.278 0.226-0.505 0.505-0.505h7.256c0.279 0 0.504 0.23 0.504 0.505v1.186h-8.264v-1.186zM14.438 12.579l5.11 2.145-1.266 0.758c-0.673-0.668-2.9-0.797-3.844-0.797-0.945 0-3.172 0.13-3.844 0.797l-1.267-0.758 5.11-2.145zM10.776 17.834c0-0.284 1.258-0.814 3.663-0.814 2.406 0 3.665 0.53 3.665 0.814s-1.259 0.815-3.665 0.815c-2.405 0-3.663-0.53-3.663-0.815z">
         </path>
         <path fill="#ff6b09" style="fill: var(--color1, #ff6b09)"
            d="M18.747 21.498c-0.32 0-0.581 0.26-0.581 0.581s0.26 0.581 0.581 0.581c0.32 0 0.581-0.261 0.581-0.581s-0.26-0.581-0.581-0.581zM18.747 22.308c-0.127 0-0.23-0.103-0.23-0.23s0.103-0.229 0.23-0.229c0.127 0 0.23 0.103 0.23 0.229s-0.103 0.23-0.23 0.23z">
         </path>
         <path fill="#ff6b09" style="fill: var(--color1, #ff6b09)" d="M19.416 9.433h-1.339v0.351h1.339v-0.351z"></path>
         <path fill="none" stroke="#ff6b09" style="stroke: var(--color1, #ff6b09)" stroke-linejoin="miter"
            stroke-linecap="butt" stroke-miterlimit="4" stroke-width="0.6275"
            d="M31.686 4.62v-4.306h-31.373v31.373h31.373v-4.306"></path>
      </symbol>

      <symbol id="icon-insurance" viewBox="0 0 32 32">
         <path fill="#ff6b09" style="fill: var(--color1, #ff6b09)"
            d="M9.667 14.937c0 0.168-0.255 0.168-0.255 0 0-3.571 2.896-6.467 6.467-6.467 3.572 0 6.467 2.896 6.467 6.467 0 0.168-0.253 0.168-0.253 0 0-2.414-3.966-2.415-3.966 0 0 0.168-0.261 0.168-0.261 0 0-2.408-3.972-2.408-3.972 0 0 0.168-0.261 0.168-0.261 0 0-2.403-3.965-2.42-3.965 0zM13.654 14c0.069-1.389 0.287-2.635 0.605-3.586 0.253-0.756 0.574-1.33 0.937-1.652-2.727 0.298-4.934 2.365-5.427 5.046 0.939-1.354 3.107-1.246 3.885 0.192zM17.845 13.938c-0.070-1.336-0.282-2.531-0.588-3.443-0.788-2.359-1.969-2.359-2.757 0-0.305 0.911-0.516 2.107-0.588 3.443 0.847-1.44 3.085-1.44 3.933 0zM21.988 13.808c-0.492-2.681-2.699-4.748-5.427-5.046 0.365 0.322 0.684 0.896 0.937 1.652 0.318 0.951 0.536 2.197 0.605 3.586 0.783-1.446 2.957-1.531 3.885-0.192z">
         </path>
         <path fill="#ff6b09" style="fill: var(--color1, #ff6b09)"
            d="M15.030 17.896v-1.313c-0.237 0.157-0.423 0.4-0.423 0.696 0 0.289 0.189 0.479 0.423 0.617zM15.285 18.304c-0.453-0.208-0.931-0.45-0.931-1.025 0-0.592 0.45-0.889 0.931-1.11v2.135z">
         </path>
         <path fill="#ff6b09" style="fill: var(--color1, #ff6b09)"
            d="M16.727 19.878v1.328c0.24-0.159 0.427-0.403 0.427-0.699 0-0.292-0.192-0.489-0.427-0.629zM16.474 19.469c0.455 0.211 0.936 0.461 0.936 1.038 0 0.594-0.453 0.89-0.936 1.11v-2.148z">
         </path>
         <path fill="#ff6b09" style="fill: var(--color1, #ff6b09)"
            d="M16.727 15.089c1.044 0.241 2.117 1.023 2.117 2.191 0 1-1.69 0.963-1.69 0 0-0.298-0.188-0.542-0.427-0.699v1.869c0.966 0.316 2.12 0.882 2.12 2.058 0 1.169-1.073 1.95-2.12 2.189-0.005 1.113-1.695 1.111-1.698-0.002-0.595-0.137-1.113-0.415-1.487-0.783-0.392-0.388-0.624-0.875-0.624-1.405 0-0.985 1.688-0.985 1.688 0 0 0.295 0.186 0.537 0.423 0.695v-1.867c-0.959-0.31-2.119-0.893-2.119-2.058 0-1.169 1.073-1.95 2.119-2.189 0.005-1.113 1.695-1.111 1.698 0.002zM15.285 15.092v0.203c-0.994 0.197-2.12 0.834-2.12 1.982 0 1.104 1.237 1.598 2.12 1.872v2.467c-0.478-0.218-0.931-0.513-0.931-1.108 0-0.65-1.182-0.65-1.182 0 0 0.459 0.205 0.884 0.55 1.223 0.438 0.434 0.969 0.64 1.563 0.757v0.205c0 0.783 1.189 0.783 1.189 0v-0.203c0.997-0.198 2.119-0.835 2.119-1.982 0-1.114-1.233-1.594-2.119-1.873v-2.466c0.479 0.218 0.936 0.513 0.936 1.111 0 0.634 1.18 0.66 1.18 0 0-1.147-1.121-1.785-2.116-1.983v-0.205c0-0.783-1.189-0.783-1.189 0z">
         </path>
         <path fill="none" stroke="#ff6b09" style="stroke: var(--color1, #ff6b09)" stroke-linejoin="miter"
            stroke-linecap="butt" stroke-miterlimit="4" stroke-width="0.6275"
            d="M31.686 4.62v-4.306h-31.373v31.373h31.373v-4.306"></path>
      </symbol>

      <!--How we do-->

      <symbol id="icon-study-program" viewBox="0 0 32 32">
         <path style=""
            d="M29.071 6.087c0-0.001-0.001-0.001-0.001-0.002-0.006-0.014-0.013-0.027-0.021-0.039-0.001-0.001-0.002-0.002-0.002-0.003-0.009-0.013-0.018-0.025-0.030-0.037l-4.231-4.188c-0.011-0.011-0.023-0.020-0.036-0.028-0.002-0.002-0.006-0.003-0.008-0.005-0.010-0.006-0.021-0.012-0.032-0.017-0.003-0.002-0.006-0.003-0.009-0.004-0.028-0.011-0.057-0.017-0.087-0.018-0.002 0-0.003-0-0.005-0h-18.639c-0.138 0-0.25 0.111-0.25 0.248v25.546c0 0.016 0.002 0.032 0.005 0.049 0.002 0.007 0.004 0.013 0.006 0.020 0.003 0.009 0.005 0.018 0.008 0.026s0.008 0.015 0.012 0.022c0.004 0.006 0.007 0.014 0.011 0.020 0.009 0.012 0.018 0.024 0.029 0.035 0.001 0.001 0.001 0.002 0.002 0.003l1.906 1.886c0.098 0.097 0.256 0.097 0.354 0l1.729-1.711 1.729 1.711c0.049 0.049 0.113 0.073 0.177 0.073s0.128-0.024 0.177-0.073l1.729-1.711 1.729 1.711c0.098 0.097 0.256 0.097 0.354 0l1.729-1.711 1.729 1.711c0.098 0.097 0.256 0.097 0.353 0l1.73-1.711 1.729 1.711c0.049 0.049 0.113 0.073 0.177 0.073s0.128-0.024 0.177-0.073l1.729-1.711 1.73 1.711c0.097 0.097 0.256 0.097 0.353 0l1.906-1.886c0.004-0.004 0.006-0.008 0.010-0.012 0.007-0.008 0.015-0.016 0.021-0.025s0.010-0.018 0.014-0.026c0.003-0.006 0.006-0.011 0.008-0.016 0.005-0.011 0.008-0.023 0.011-0.034 0.001-0.004 0.003-0.008 0.004-0.012 0.003-0.017 0.005-0.033 0.005-0.051v-21.356c-0.001-0.032-0.007-0.065-0.020-0.095zM24.859 2.591l3.377 3.343h-3.377v-3.343zM28.59 27.436l-1.655 1.639-1.73-1.711c-0.097-0.096-0.256-0.096-0.353 0l-1.729 1.711-1.729-1.711c-0.098-0.096-0.256-0.096-0.354 0l-1.73 1.711-1.728-1.71c0-0-0-0.001-0-0.001-0.049-0.048-0.113-0.072-0.177-0.072s-0.128 0.024-0.177 0.072c-0 0-0 0-0 0l-1.728 1.711-1.729-1.711c-0.098-0.096-0.256-0.096-0.354 0l-1.729 1.711-1.729-1.711c-0.098-0.096-0.256-0.096-0.354 0l-1.729 1.711-1.655-1.639v-25.196h18.138v3.941c0 0.137 0.112 0.248 0.25 0.248h3.98l0 21.007z">
         </path>
         <path style=""
            d="M8.085 4.583h8.19c0.138 0 0.25-0.111 0.25-0.248s-0.112-0.248-0.25-0.248h-8.19c-0.138 0-0.25 0.111-0.25 0.248s0.112 0.248 0.25 0.248z">
         </path>
         <path style=""
            d="M8.085 6.114h13.134c0.138 0 0.25-0.111 0.25-0.248s-0.112-0.248-0.25-0.248h-13.134c-0.138 0-0.25 0.111-0.25 0.248s0.112 0.248 0.25 0.248z">
         </path>
         <path style=""
            d="M7.835 7.488v8.017c0 0.137 0.112 0.248 0.25 0.248h18.639c0.138 0 0.25-0.111 0.25-0.248v-8.017c0-0.137-0.112-0.248-0.25-0.248h-18.639c-0.138 0-0.25 0.111-0.25 0.248zM13.363 7.736h13.111v2.131h-13.111v-2.131zM13.363 10.362h13.111v2.13h-13.111v-2.13zM13.363 12.987h13.111v2.271h-13.111v-2.271zM8.336 7.736h4.527v2.131h-4.527v-2.131zM8.336 10.362h4.527v2.13h-4.527v-2.13zM8.336 12.987h4.527v2.271h-4.527v-2.271z">
         </path>
         <path style=""
            d="M26.725 16.867h-18.639c-0.138 0-0.25 0.111-0.25 0.248v8.017c0 0.137 0.112 0.247 0.25 0.247s0.25-0.111 0.25-0.247v-2.518h4.527v2.518c0 0.137 0.112 0.247 0.25 0.247s0.25-0.111 0.25-0.247v-2.518h13.111v2.518c0 0.137 0.112 0.247 0.25 0.247s0.25-0.111 0.25-0.247v-8.017c0.001-0.137-0.111-0.248-0.249-0.248zM12.863 22.118h-4.527v-2.13h4.527v2.13zM12.863 19.493h-4.527v-2.13h4.527v2.13zM26.474 22.118h-13.111v-2.13h13.111v2.13zM26.474 19.493h-13.111v-2.13h13.111v2.13z">
         </path>
         <path style=""
            d="M4.535 1.745c-0.138 0-0.25 0.111-0.25 0.248v25.546c0 0.136 0.112 0.247 0.25 0.247s0.25-0.111 0.25-0.247v-25.546c0-0.137-0.112-0.248-0.25-0.248z">
         </path>
         <path style=""
            d="M3.159 1.745c-0.138 0-0.25 0.111-0.25 0.248v25.546c0 0.136 0.112 0.247 0.25 0.247s0.25-0.111 0.25-0.247v-25.546c0-0.137-0.112-0.248-0.25-0.248z">
         </path>
      </symbol>

      <symbol id="icon-mobile-learn" viewBox="0 0 32 32">
         <path style=""
            d="M28.090 2.327h-13.424c-0.874 0-1.585 0.707-1.585 1.576v5.526l-9.973 4.162c-0.113 0.047-0.19 0.153-0.198 0.275s0.052 0.238 0.157 0.3l1.272 0.757v8.066c-0.65 0.148-1.138 0.726-1.138 1.419v0.778c0 0.178 0.145 0.323 0.325 0.323h2.277c0.179 0 0.325-0.145 0.325-0.323v-0.778c0-0.692-0.488-1.27-1.139-1.418v-7.681l1.006 0.599c-0.031 0.231-0.004-0.402-0.014 3.755 0 1.367 3.52 2.099 7.102 2.141v6.295c0 0.325 0.1 0.628 0.271 0.879 0.285 0.419 0.767 0.695 1.313 0.695h13.424c0.873 0 1.583-0.706 1.583-1.574 0 0.043-0.002-1.333 0-24.195 0-0.857-0.713-1.576-1.582-1.576zM5.478 24.408v0.455h-1.628v-0.455c0-0.447 0.364-0.812 0.812-0.812 0.45 0 0.816 0.364 0.816 0.812zM28.090 29.025h-13.424c-0.322 0-0.607-0.162-0.775-0.408-0.101-0.148-0.16-0.327-0.16-0.519v-2.182h15.29v2.183c0 0.506-0.424 0.926-0.931 0.926zM29.021 25.27h-15.291v-3.464c1.749-0.020 7.106-0.403 7.106-2.143-0.002-2.612 0.005-3.671-0.008-3.76l2.916-1.737c0.105-0.063 0.166-0.179 0.157-0.3s-0.085-0.228-0.198-0.275l-9.973-4.162v-2.697h15.291v18.539zM13.406 17.519c-1.801 0-5.27 0.231-6.777 1.21 0.010-2.993-0.104-2.798 0.266-3.052 0.936-0.685 3.613-1.164 6.511-1.164 1.264 0 6.781 0.345 6.781 1.507v2.709c-1.521-0.988-4.972-1.21-6.781-1.21zM13.731 3.903c0-0.512 0.419-0.929 0.934-0.929h13.424c0.515 0 0.932 0.422 0.932 0.928v2.182h-15.29v-2.182zM13.406 9.994l9.455 3.946-2.343 1.394c-1.246-1.228-5.366-1.466-7.112-1.466-1.749 0-5.869 0.239-7.112 1.467l-2.343-1.394 9.455-3.946zM6.629 19.664c0-0.523 2.328-1.498 6.777-1.498 4.452 0 6.781 0.976 6.781 1.498s-2.329 1.499-6.781 1.499c-4.449 0-6.777-0.976-6.777-1.499z">
         </path>
         <path style=""
            d="M21.377 26.403c-0.592 0-1.074 0.479-1.074 1.068s0.482 1.069 1.074 1.069c0.592 0 1.074-0.479 1.074-1.069s-0.482-1.068-1.074-1.068zM21.377 27.894c-0.234 0-0.425-0.19-0.425-0.423s0.191-0.422 0.425-0.422c0.234 0 0.425 0.189 0.425 0.422s-0.191 0.423-0.425 0.423z">
         </path>
         <path style="" d="M22.616 4.207h-2.478v0.646h2.478v-0.646z"></path>
      </symbol>

      <symbol id="icon-open-book" viewBox="0 0 32 32">
         <path style="" d="M14.717 9.194h-8.443v0.636h8.443v-0.636z"></path>
         <path style="" d="M14.717 11.566h-7.179v0.636h7.179v-0.636z"></path>
         <path style="" d="M14.717 13.939h-8.443v0.636h8.443v-0.636z"></path>
         <path style="" d="M14.717 16.311h-7.179v0.636h7.179v-0.636z"></path>
         <path style="" d="M14.717 18.683h-8.443v0.636h8.443v-0.636z"></path>
         <path style="" d="M14.717 21.055h-7.179v0.636h7.179v-0.636z"></path>
         <path style="" d="M26.308 9.194h-8.443v0.636h8.443v-0.636z"></path>
         <path style="" d="M25.043 11.566h-7.179v0.636h7.179v-0.636z"></path>
         <path style="" d="M26.308 13.939h-8.443v0.636h8.443v-0.636z"></path>
         <path style="" d="M25.043 16.311h-7.179v0.636h7.179v-0.636z"></path>
         <path style="" d="M26.308 18.683h-8.443v0.636h8.443v-0.636z"></path>
         <path style="" d="M25.043 21.055h-7.179v0.636h7.179v-0.636z"></path>
         <path style=""
            d="M29.357 8.47h-1.159v-1.752c0-0.176-0.142-0.318-0.316-0.318h-9.449c-0.922 0-1.721 0.502-2.141 1.253-0.419-0.751-1.219-1.253-2.141-1.253h-9.449c-0.175 0-0.316 0.143-0.316 0.318v1.752h-1.159c-0.175 0-0.316 0.143-0.316 0.318v17.076c0 0.176 0.142 0.318 0.316 0.318 3.174 0 22.946 0 26.131 0 0.174 0 0.316-0.142 0.316-0.318v-17.076c0-0.176-0.142-0.318-0.316-0.318zM18.432 7.036h9.133c0 2.849 0 10.353 0 17.038h-9.808c-0.435 0-0.869 0.185-1.151 0.424v-15.629c0-1.016 0.808-1.832 1.825-1.832zM5.016 7.036h9.133c0.988 0 1.788 0.774 1.821 1.762 0 0.014 0.002 0.057 0.004 0.070v15.628c-0.28-0.238-0.71-0.423-1.147-0.423h-9.812c0-6.683 0-14.19 0-17.038zM3.541 9.106h0.843v15.286c0 0.176 0.142 0.318 0.316 0.318h10.128c0.482 0 0.948 0.318 1.097 0.835h-12.384v-16.439zM29.041 25.546h-12.383c0.15-0.52 0.611-0.835 1.101-0.835h10.124c0.174 0 0.316-0.142 0.316-0.318v-15.286h0.843v16.439z">
         </path>
      </symbol>

      <symbol id="icon-union" viewBox="0 0 32 32">
         <path style=""
            d="M4.055 13.287v2.471c0 0.133 0.060 0.258 0.164 0.34 1.677 1.329 3.78 2.061 5.924 2.061 0.642 0 1.284-0.068 1.912-0.195 1.338 0.596 2.763 0.901 4.237 0.901 1.479 0 2.904-0.305 4.237-0.901 2.678 0.545 5.532-0.040 7.835-1.866 0.104-0.082 0.164-0.208 0.164-0.34v-2.471c0-0.363-0.179-0.693-0.498-0.896l-3.351-1.899c0.733-0.937 1.279-2.271 1.374-3.415 0.278-1.969-1.315-4.055-3.609-4.055-0.965 0-1.881 0.4-2.554 1.071-0.023 0.023-0.050 0.043-0.072 0.067-0.021 0.022-0.038 0.047-0.058 0.070-0.013 0.015-0.025 0.031-0.038 0.046-0.656-1.204-1.916-1.948-3.4-1.948-0.144 0-0.286 0.010-0.426 0.024-0.009-0.001-0.016-0.005-0.024-0.005-0.080 0-0.248 0.021-0.339 0.047-0.013 0.004-0.023 0.013-0.036 0.018-1.109 0.226-2.048 0.902-2.611 1.882-0.677-0.795-1.672-1.272-2.754-1.272-3.386 0-4.888 4.025-2.216 7.489l-3.382 1.891c-0.3 0.191-0.479 0.522-0.479 0.885zM20.52 17.013c-0.073 0.036-0.145 0.074-0.218 0.107l-0 0c-0.001 0-0.001 0.001-0.002 0.001-1.258 0.582-2.607 0.878-4.009 0.878-1.398 0-2.747-0.295-4.011-0.879-0.615-0.282-1.21-0.64-1.772-1.065v-2.505c0-0.085 0.041-0.161 0.089-0.193l3.935-2.203c0.49 0.419 1.115 0.726 1.763 0.726 0.624 0 1.299-0.312 1.778-0.736l3.888 2.199c0.072 0.046 0.113 0.122 0.113 0.207v2.504c-0.495 0.375-1.016 0.694-1.554 0.958zM27.588 13.133c0.051 0.032 0.080 0.088 0.080 0.154v2.258c-1.706 1.289-3.758 1.874-5.837 1.728 0.32-0.201 0.668-0.451 0.938-0.663 0.104-0.082 0.164-0.207 0.164-0.341v-2.718c0-0.38-0.189-0.729-0.529-0.948l-2.065-1.169 0.502-0.28c0.609 0.5 1.132 0.649 1.602 0.649 0.574 0 1.178-0.284 1.627-0.662l3.518 1.993zM22.444 3.888c1.196 0 2.247 0.787 2.618 1.87-0.722-0.086-1.427-0.445-1.938-0.997-0.092-0.1-0.224-0.151-0.36-0.135-0.134 0.014-0.254 0.092-0.323 0.208-0.49 0.827-1.294 1.379-2.207 1.536 0-0.001-0-0.002-0-0.003 0.004-0.188-0.007-0.379-0.028-0.57-0.002-0.020-0.004-0.039-0.006-0.058-0.028-0.217-0.093-0.488-0.105-0.531 0.488-0.787 1.394-1.32 2.351-1.32zM20.139 7.253c1.086-0.12 2.067-0.669 2.742-1.538 0.665 0.549 1.508 0.882 2.341 0.922-0.006 1.564-1.275 4.3-2.778 4.3-1.159 0-2.148-1.669-2.517-2.826 0.094-0.298 0.162-0.584 0.213-0.858zM20.226 10.507l-0.768 0.428-0.775-0.439c0.287-0.361 0.551-0.779 0.777-1.233 0.217 0.459 0.477 0.882 0.766 1.244zM19.068 7.969c-0.414 1.245-1.477 3.046-2.772 3.046-1.51 0-2.795-2.5-3.040-4.098 0.065-0.016 2.105 0.11 3.509-1.746 0.712 0.6 1.674 0.998 2.609 1.037 0.011 0.564-0.125 1.227-0.305 1.761zM16.321 3.193c2.408 0 2.867 2.088 2.905 2.131-0.873-0.089-1.67-0.52-2.221-1.113-0.092-0.1-0.227-0.15-0.36-0.135s-0.254 0.093-0.323 0.21c-0.477 0.813-1.225 1.386-2.092 1.63-0.334 0.094-0.696 0.137-1.011 0.134 0.118-1.59 1.383-2.857 3.102-2.857zM13.125 9.255c0.223 0.449 0.488 0.878 0.791 1.255l-0.759 0.425-0.786-0.445c0.298-0.383 0.551-0.811 0.753-1.235zM10.131 3.888c0.974 0 1.867 0.498 2.365 1.321-0.025 0.087-0.092 0.435-0.101 0.478-0.598-0.144-1.147-0.465-1.578-0.927-0.093-0.099-0.224-0.149-0.36-0.134-0.134 0.015-0.254 0.093-0.323 0.21-0.575 0.977-1.63 1.584-2.753 1.584 0.137-1.42 1.315-2.531 2.75-2.531zM7.419 7.282c1.235-0.012 2.4-0.598 3.156-1.567 0.516 0.428 1.129 0.71 1.781 0.839 0.025 0.502 0.155 1.111 0.303 1.561-0.237 0.733-0.692 1.606-1.257 2.187-0.004 0.004-0.008 0.005-0.012 0.009-0.353 0.375-0.856 0.627-1.251 0.627-1.381 0-2.461-2.189-2.721-3.655zM4.914 13.287c0-0.066 0.029-0.121 0.058-0.141l3.566-1.993c0.214 0.179 0.263 0.2 0.306 0.232l-0 0c0.42 0.281 0.804 0.421 1.329 0.421 0.559 0 1.068-0.239 1.516-0.606 0.025-0.020 0.052-0.039 0.076-0.059l0.509 0.288-2.12 1.188c-0.317 0.206-0.506 0.555-0.506 0.935v2.718c0 0.133 0.060 0.258 0.164 0.34 0.274 0.217 0.63 0.47 0.938 0.664-2.109 0.145-4.161-0.461-5.838-1.728v-2.258z">
         </path>
         <path style=""
            d="M29.412 20.463c-0.529-0.335-1.179-0.369-1.739-0.096l-5.302 2.58c-0.018-1-0.828-1.808-1.825-1.808l-3.040 0.001c-1.499-1.313-3.415-2.116-5.157-2.159-1.718-0.041-3.26-0.053-3.979-0.056v-0.874h-6.041v10.051h6.041v-1.204c1.657 0.957 6.012 3.356 8.079 3.356 0.047 0 0.093-0.001 0.137-0.004 3.635-0.205 12.209-6.282 12.775-6.686 0.553-0.323 0.896-0.922 0.896-1.567 0-0.628-0.315-1.201-0.843-1.535zM7.509 27.237h-4.322v-8.32h4.322v8.32zM28.916 22.823c-0.013 0.007-0.026 0.015-0.038 0.024-0.089 0.063-8.908 6.346-12.342 6.54-0.034 0.002-0.068 0.003-0.105 0.003-1.813 0-6.233-2.402-8.064-3.492v-6.106c0.716 0.003 2.25 0.015 3.959 0.056 1.591 0.038 3.358 0.804 4.727 2.047l0.123 0.112 3.368-0.001c0.535 0 0.97 0.438 0.97 0.976s-0.435 0.977-0.969 0.977h-6.188v0.866h6.188c0.593 0 1.116-0.29 1.45-0.733l6.051-2.944c0.297-0.146 0.628-0.127 0.909 0.050s0.44 0.469 0.44 0.801c0 0.341-0.183 0.657-0.479 0.825z">
         </path>
         <path style="" d="M16.721 12.938h-0.859v0.803h0.859v-0.803z"></path>
         <path style="" d="M16.721 14.539h-0.859v0.803h0.859v-0.803z"></path>
         <path style="" d="M16.721 16.139h-0.859v0.802h0.859v-0.802z"></path>
      </symbol>

      <symbol id="icon-student" viewBox="0 0 32 32">
         <path style=""
            d="M4.124 29.091c3.054 0 20.724 0 23.775 0 0.118-2.634-0.076-7.005-1.743-9.085l-0.060-0.075-3.643-1.777c0.079-0.259 0.118-0.497 0.134-0.671 0.018-0.209-0.012-0.406-0.089-0.585-0.601-1.397-1.873-2.132-2.572-2.446 0.213-0.417 0.351-0.865 0.417-1.323 0.396-0.108 0.714-0.413 0.819-0.82l0.425-1.678c0.075-0.296 0.028-0.603-0.134-0.864-0.070-0.113-0.16-0.207-0.261-0.288 1.199-2.646-0.809-5.14-0.918-5.272-2.175-2.284-4.921-1.857-5.067-1.832-3.964 0.807-5.494 3.758-4.63 7.221-0.256 0.275-0.363 0.659-0.268 1.035l0.427 1.68c0.104 0.404 0.42 0.708 0.813 0.817 0.121 0.838 0.487 1.596 1.023 2.207v1.331c-5.689 2.831-2.084 1.025-6.643 3.266-0.009 0.042-2.139 2.241-1.823 8.761l0.019 0.398zM27.073 28.255h-3.913v-1.597l2.588-5.756c1.297 2.091 1.345 6.083 1.325 7.353zM21.733 17.412c-0.151 1.685-1.102 1.176-1.689 2.474-0.462-0.493-0.601-1.085-0.477-1.719 0.224-1.163-0.506-1.508-0.326-2.73l0.027-0.028v-0.004c0.016-0.017 0.16-0.184 0.201-0.236 1.548 0.656 2.293 1.875 2.263 2.243zM13.428 16.087c0.719 0.484 1.586 0.771 2.519 0.771 0.879 0 1.713-0.248 2.429-0.706 0.099 0.961 0.486 1.153 0.349 1.86-0.026 0.131-0.040 0.261-0.048 0.388l-2.665 2.918-3.406-3.731 0.822-0.417v-1.082zM12.356 12.516v-1.618c0-0.596 0-2.959 0-2.843 0.415-0.745 0.98-1.286 1.683-1.61 1.882 1.035 4.048 2.579 5.501 4.132-0.001 1.979 0.006 1.984-0.008 2.147l-0.001 0.010c-0.113 1.797-1.634 3.286-3.584 3.286-1.896 0-3.47-1.446-3.584-3.304-0.006-0.067-0.007-0.133-0.007-0.201zM11.826 17.989l4.186 4.585 2.81-3.078c0.064 0.18 0.154 0.349 0.257 0.513l-3.068 3.728-4.575-5.559 0.389-0.189zM20.397 11.843v-1.292c0.038-0.042 0.357-0.398 0.32-0.356 0.018 0.654 0.090-0.118-0.32 1.648zM15.365 3.197c0.17 0.010 2.454-0.338 4.26 1.556 0.071 0.087 1.541 1.926 0.95 3.939-0.202-0.896-0.554-2.043-1.111-2.591l-0.609 0.589c0.55 0.541 0.911 2.188 1.048 3.042-2.521-2.563-5.774-4.186-5.818-4.213-0.163 0.099-1.539 0.353-2.539 2.24l-0.048 0.090v1.386c-0.043 0-0.169 0.002-0.126 0.001-0.635-2.979 0.581-5.346 3.992-6.040zM11.283 10.097l0.216 0.851v0.895l-0.36-1.414c-0.053-0.211 0.108-0.291 0.143-0.333zM10.653 18.561l5.359 6.512 3.626-4.406c0.394 0.343 0.584 0.392 1.42 0.809l-0.282-0.93c-0.072-0.236 0.212-0.615 0.383-0.789 0.382-0.201 0.7-0.488 0.939-0.843l2.958 1.443-2.753 6.123v1.772h-12.583v-1.772l-2.754-6.123 3.687-1.798zM6.275 20.903l2.588 5.755v1.597h-3.913c-0.020-1.27 0.029-5.26 1.325-7.351z">
         </path>
      </symbol>

      <symbol id="icon-audio-book" viewBox="0 0 32 32">
         <path style=""
            d="M3.018 26.77h9.923c0.503 1.057 1.555 1.74 2.743 1.74h0.627c1.189 0 2.24-0.682 2.743-1.74h9.928c1.023 0 1.855-0.843 1.855-1.879v-18.010c0-1.036-0.832-1.879-1.855-1.879h-1.002v-0.839c0-0.691-0.555-1.253-1.236-1.253h-21.494c-0.682 0-1.236 0.562-1.236 1.253v0.839h-0.995c-1.023 0-1.855 0.843-1.855 1.879v18.010c0 1.036 0.832 1.879 1.855 1.879zM26.743 22.905h-10.125v-14.557c2.34 0.31 4.155 2.339 4.155 4.794v0.565l-0.147-0.033c-0.159-0.035-0.327-0.006-0.465 0.084s-0.236 0.231-0.271 0.393l-0.984 4.538c-0.073 0.337 0.138 0.671 0.471 0.745l2.127 0.475c0.11 0.024 0.222 0.036 0.333 0.036 0.748 0 1.385-0.518 1.548-1.262l0.569-2.624c0.188-0.862-0.351-1.719-1.204-1.911l-0.74-0.165v-0.841c0-3.147-2.367-5.744-5.391-6.060v-2.92h10.126l-0.001 18.743zM20.964 15.032l1.518 0.339c0.19 0.043 0.305 0.226 0.264 0.418l-0.569 2.624c-0.041 0.19-0.248 0.307-0.412 0.272l-1.52-0.34 0.719-3.313zM5.25 4.162h10.132v2.919c-3.027 0.313-5.397 2.912-5.397 6.061v0.841l-0.741 0.166c-0.413 0.093-0.765 0.342-0.992 0.702-0.228 0.361-0.302 0.79-0.211 1.207l0.568 2.621c0.154 0.734 0.805 1.266 1.549 1.266 0.112 0 0.223-0.012 0.337-0.037l2.118-0.474c0.333-0.075 0.543-0.408 0.47-0.745l-0.984-4.538c-0.035-0.162-0.133-0.304-0.271-0.393s-0.307-0.119-0.466-0.084l-0.141 0.032v-0.564c0-2.457 1.817-4.487 4.161-4.795v14.558h-10.132v-18.743zM11.025 15.033l0.72 3.313-1.512 0.338c-0.186 0.042-0.376-0.082-0.415-0.27l-0.569-2.627c-0.021-0.091-0.004-0.184 0.045-0.262s0.127-0.133 0.217-0.154l1.515-0.339zM2.4 6.881c0-0.345 0.277-0.626 0.618-0.626h0.995v16.65c0 0.691 0.555 1.253 1.236 1.253h21.494c0.682 0 1.236-0.562 1.236-1.253v-16.65h1.002c0.341 0 0.618 0.281 0.618 0.626v18.010c0 0.345-0.277 0.626-0.618 0.626h-10.349c-0.272 0-0.511 0.18-0.591 0.443-0.235 0.776-0.931 1.297-1.732 1.297h-0.627c-0.798 0-1.494-0.519-1.734-1.304-0.082-0.259-0.32-0.435-0.589-0.435h-10.342c-0.341 0-0.618-0.281-0.618-0.626v-18.010z">
         </path>
      </symbol>


      <!--Teacher-->

      <symbol id="icon-check-mark" viewBox="0 0 40 32">
         <path fill="#ff6b09" style="fill: var(--color1, #ff6b09)"
            d="M35.296 1.514c-1.521 0.664-2.978 1.475-4.369 2.379-2.797 1.797-5.355 3.936-7.754 6.218-2.398 2.287-4.63 4.735-6.741 7.28-0.528 0.636-2.892 3.47-2.892 3.47l-9.83-14.38-3.711 10.042 13.293 15.477c1.291-2.551 2.533-5.070 3.752-7.258 0.303-0.556 0.62-1.080 0.923-1.612 0 0 1.56-2.677 1.97-3.352 1.64-2.697 3.414-5.325 5.366-7.821 1.955-2.491 4.080-4.87 6.489-6.961 1.199-1.052 2.475-2.025 3.842-2.872 1.364-0.848 2.814-1.591 4.365-2.125-1.613 0.31-3.187 0.848-4.704 1.514z">
         </path>
      </symbol>

      <!--Reviews-->

      <symbol id="icon-vector-right" viewBox="0 0 54 32">
         <path fill="#ff6b09" style="fill: var(--color1, #ff6b09)"
            d="M2 14c-1.105 0-2 0.895-2 2s0.895 2 2 2v-4zM53.414 17.414c0.781-0.781 0.781-2.047 0-2.828l-12.728-12.728c-0.781-0.781-2.047-0.781-2.828 0s-0.781 2.047 0 2.828l11.314 11.314-11.314 11.314c-0.781 0.781-0.781 2.047 0 2.828s2.047 0.781 2.828 0l12.728-12.728zM2 18h50v-4h-50v4z">
         </path>
      </symbol>
      <symbol id="icon-vector-left" viewBox="0 0 54 32">
         <path fill="#ff6b09" style="fill: var(--color1, #ff6b09)"
            d="M52 14c1.105 0 2 0.895 2 2s-0.895 2-2 2v-4zM0.586 17.414c-0.781-0.781-0.781-2.047 0-2.828l12.728-12.728c0.781-0.781 2.047-0.781 2.828 0s0.781 2.047 0 2.828l-11.314 11.314 11.314 11.314c0.781 0.781 0.781 2.047 0 2.828s-2.047 0.781-2.828 0l-12.728-12.728zM52 18h-50v-4h50v4z">
         </path>
      </symbol>
      <symbol id="icon-facebook" viewBox="0 0 31 32">
         <path fill="#436eab" style="fill: var(--color3, #436eab)"
            d="M26.318 2.314h-21.551c-0.779 0-1.527 0.307-2.078 0.853s-0.861 1.287-0.861 2.060v21.363c0 0.773 0.31 1.514 0.861 2.060s1.299 0.853 2.078 0.853h8.403v-9.244h-3.857v-4.351h3.857v-3.316c0-3.772 2.265-5.856 5.735-5.856 1.662 0 3.399 0.294 3.399 0.294v3.702h-1.914c-1.886 0-2.475 1.16-2.475 2.351v2.825h4.211l-0.673 4.351h-3.538v9.244h8.403c0.779 0 1.527-0.307 2.078-0.853s0.861-1.287 0.861-2.060v-21.363c0-0.773-0.31-1.514-0.861-2.060s-1.299-0.853-2.078-0.853z">
         </path>
      </symbol>

      <!--Footer-->

      <symbol id="icon-phone" viewBox="0 0 32 32">
         <path fill="#ff6b09" style="fill: var(--color1, #ff6b09)"
            d="M4.657 0.003c-0.515 0.025-1.021 0.253-1.392 0.678l-2.595 2.969c0.004-0.009-0.010-0.008-0.084 0.101-0.039 0.056-0.070 0.118-0.090 0.184-1.056 3.502-0.348 7.354 1.376 11.018s4.475 7.17 7.633 10.047c3.158 2.877 6.721 5.128 10.119 6.244s6.692 1.102 9.133-0.742c0.027-0.020 0.052-0.043 0.075-0.068 0.064-0.067 0.066-0.075 0.056-0.065l0.010-0.013 2.582-2.956c0.742-0.849 0.682-2.184-0.134-2.956l-6.126-5.799c-0.816-0.772-2.098-0.711-2.84 0.138l-2.772 3.173c-2.25-0.678-4.173-1.828-6.023-3.58s-3.132-3.637-3.993-5.905l2.771-3.173c0.742-0.849 0.683-2.184-0.133-2.956l-6.126-5.8c-0.408-0.386-0.933-0.564-1.448-0.539l-0.001 0zM4.715 1.304c0.19-0.009 0.383 0.060 0.541 0.209l6.126 5.8c0.316 0.299 0.337 0.776 0.050 1.104l-3.063 3.504c-0.077 0.089-0.129 0.197-0.151 0.314s-0.013 0.239 0.027 0.351c0.93 2.641 2.429 4.807 4.493 6.761s4.275 3.304 6.889 4.018c0.111 0.030 0.228 0.028 0.339-0.005s0.21-0.099 0.287-0.188l3.064-3.505c0.287-0.328 0.744-0.35 1.060-0.051l6.127 5.8c0.316 0.299 0.336 0.775 0.049 1.103l-2.561 2.93c-2.003 1.497-4.826 1.581-7.986 0.542-3.173-1.043-6.617-3.202-9.666-5.98s-5.702-6.169-7.332-9.633c-1.614-3.429-2.199-6.895-1.312-9.95l2.502-2.862c0.143-0.164 0.33-0.252 0.52-0.261l0 0z">
         </path>
      </symbol>

      <!--Mobile and Tablet-->

      <symbol id="icon-close-menu" viewBox="0 0 32 32">
         <path
            d="m26.667 7.303-1.97-1.97-7.808 7.808-7.808-7.808-1.97 1.97 7.808 7.808-7.808 7.808 1.97 1.97 7.808-7.808 7.808 7.808 1.97-1.97-7.808-7.808 7.808-7.808z" />
      </symbol>
      <symbol id="icon-burger-menu" viewBox="0 0 48 32">
         <path d="M0 5.333v-5.333h48v5.333h-48zM0 18.667h48v-5.333h-48v5.333zM0 32h48v-5.333h-48v5.333z"></path>
      </symbol>


   </defs>
</svg>