<svg width="62" height="62" viewBox="0 0 62 62" fill="none" xmlns="http://www.w3.org/2000/svg">
<path d="M14.071 50C18.2963 50 42.7409 50 46.9612 50C47.1241 46.1612 46.8555 39.7921 44.5494 36.7607L44.466 36.6519L39.4267 34.0623C39.5361 33.6846 39.59 33.3386 39.6116 33.0842C39.6365 32.779 39.5954 32.4922 39.4888 32.2324C38.6575 30.1964 36.8983 29.1252 35.9306 28.6686C36.2255 28.0605 36.4157 27.4077 36.5075 26.7408C37.0552 26.5828 37.4958 26.1386 37.6403 25.5459L38.2285 23.1002C38.3327 22.6688 38.2673 22.2213 38.0432 21.8408C37.9468 21.6767 37.8222 21.5386 37.6823 21.4205C39.3407 17.5652 36.5631 13.9299 36.4118 13.7386C33.4036 10.4099 29.6034 11.0323 29.4025 11.0692C23.9184 12.2445 21.802 16.546 22.9968 21.591C22.6429 21.9923 22.4943 22.5514 22.6255 23.0996L23.2166 25.5479C23.3599 26.1363 23.797 26.579 24.3409 26.7388C24.5086 27.9602 25.0138 29.065 25.7558 29.9553V31.8941C17.886 36.0188 22.8725 33.3874 16.5657 36.6528C16.5532 36.7137 13.6064 39.919 14.0444 49.4195L14.071 50ZM45.8184 48.7813H40.4053V46.4541L43.9855 38.066C45.779 41.1126 45.8456 46.9298 45.8184 48.7813ZM38.4306 32.9807C38.2217 35.4366 36.9057 34.6943 36.0934 36.5864C35.4544 35.8674 35.2623 35.0051 35.434 34.0821C35.7442 32.3874 34.7335 31.8841 34.9833 30.1034L35.0212 30.0626V30.0569C35.0426 30.0324 35.2419 29.7895 35.2996 29.7127C37.4413 30.6682 38.4723 32.4452 38.4306 32.9807ZM26.9415 31.0504C27.9357 31.7561 29.1358 32.1732 30.4267 32.1732C31.6424 32.1732 32.797 31.8112 33.787 31.1445C33.9242 32.5444 34.4588 32.8247 34.2691 33.8548C34.2335 34.0461 34.2143 34.2345 34.2029 34.4198L30.5164 38.6721L25.8039 33.2346L26.9415 32.6267V31.0504H26.9415ZM25.4594 25.8464V23.4888C25.4594 22.6206 25.4594 19.1763 25.4594 19.3463C26.0331 18.2604 26.8153 17.4728 27.7873 17.0007C30.3906 18.5082 33.3873 20.758 35.3969 23.0223C35.395 25.9058 35.4048 25.9137 35.3861 26.1506L35.3848 26.1656C35.228 28.7841 33.1243 30.9546 30.4267 30.9546C27.8041 30.9546 25.6267 28.8472 25.4692 26.1397C25.4611 26.0427 25.4594 25.9454 25.4594 25.8464ZM24.7253 33.8227L30.5164 40.5042L34.4044 36.0195C34.4933 36.2814 34.6179 36.5287 34.7605 36.7677L30.5164 42.1995L24.1877 34.0989L24.7253 33.8227ZM36.5826 24.8657V22.9833C36.6347 22.9221 37.0767 22.4034 37.0246 22.4646C37.049 23.4177 37.1495 22.2928 36.5826 24.8657ZM29.622 12.2667C29.8572 12.2817 33.0174 11.7748 35.515 14.5345C35.6133 14.6608 37.6465 17.3417 36.8297 20.2746C36.5501 18.9695 36.0628 17.2971 35.2927 16.499L34.4509 17.3571C35.2113 18.1453 35.7108 20.5456 35.901 21.7899C32.4131 18.0547 27.9139 15.6905 27.8521 15.6505C27.6265 15.7941 25.7225 16.1646 24.3397 18.9152L24.2737 19.0467V21.0669C24.2143 21.0676 24.04 21.0695 24.0994 21.0688C23.2208 16.7276 24.9033 13.279 29.622 12.2667ZM23.9745 22.3225L24.2737 23.5632V24.8672L23.7764 22.8071C23.7034 22.5001 23.9257 22.3836 23.9745 22.3225ZM23.1027 34.6564L30.5164 44.1459L35.5324 37.7252C36.0781 38.225 36.3404 38.2959 37.4973 38.9047L37.1071 37.5501C37.0081 37.2062 37.4 36.6545 37.6368 36.4011C38.1653 36.1077 38.6059 35.6892 38.9354 35.1726L43.0279 37.2758L39.2196 46.1988V48.7813H21.8126V46.1985L18.0026 37.2767L23.1027 34.6564ZM17.0462 38.0687L20.627 46.4544V48.7813H15.2139C15.1866 46.9304 15.2538 41.1162 17.0462 38.0687Z" fill="#FF6B09"/>
<path d="M61 9.23529V1H1V61H61V52.7647" stroke="#FF6B09" stroke-width="2"/>
</svg>
