<svg width="102" height="102" viewBox="0 0 102 102" fill="none" xmlns="http://www.w3.org/2000/svg">
<g clip-path="url(#clip0_1_3429)">
<path d="M71.3201 26.812H48.1931C46.6876 26.812 45.4629 28.0367 45.4629 29.5422V39.1155L28.2816 46.3269C28.0871 46.4085 27.9548 46.5921 27.9399 46.8026C27.925 47.0132 28.0291 47.2142 28.2102 47.3228L30.4013 48.6342V62.6091C29.2808 62.8646 28.44 63.8674 28.44 65.0673V66.4143C28.44 66.7233 28.6907 66.9739 28.9996 66.9739H32.9232C33.2321 66.9739 33.4827 66.7233 33.4827 66.4143V65.0673C33.4827 63.869 32.6417 62.8675 31.5203 62.6104V49.304L33.2528 50.3409C33.1996 50.7404 33.2461 49.6446 33.228 56.8471C33.228 59.2147 39.2925 60.483 45.4629 60.5557V71.4617C45.4629 72.0251 45.6354 72.549 45.9303 72.9838C46.421 73.7097 47.2515 74.1879 48.1917 74.1879H71.3187C72.8227 74.1879 74.0463 72.964 74.0463 71.4603C74.0463 71.535 74.0433 69.1501 74.0463 29.5426C74.0463 28.0575 72.8184 26.812 71.3201 26.812ZM32.3636 65.0673V65.8548H29.5591V65.0673C29.5591 64.2921 30.1867 63.6612 30.9579 63.6612C31.7331 63.6612 32.3636 64.2921 32.3636 65.0673ZM71.3201 73.066H48.1931C47.6382 73.066 47.148 72.7851 46.8581 72.3587C46.6845 72.102 46.583 71.7927 46.583 71.4603V67.6798H72.9244V71.4617C72.9244 72.3381 72.1941 73.066 71.3201 73.066ZM72.9244 66.5608H46.5819V60.559C49.5947 60.5245 58.8241 59.861 58.8241 56.8471C58.8208 52.3225 58.8321 50.4877 58.8099 50.3324L63.8343 47.3228C64.0153 47.2142 64.1195 47.0132 64.1046 46.8026C64.0896 46.5921 63.9574 46.4085 63.7629 46.3269L46.5819 39.1153V34.4421H72.9244V66.5608ZM46.0224 53.1322C42.9188 53.1322 36.9431 53.533 34.3471 55.2282C34.3636 50.0432 34.1672 50.3809 34.8057 49.9412C36.4184 48.7537 41.0308 47.9246 46.0224 47.9246C48.1996 47.9246 57.705 48.5231 57.705 50.5357V55.229C55.0847 53.518 49.1393 53.1322 46.0224 53.1322ZM46.583 29.5426C46.583 28.6556 47.3047 27.934 48.1917 27.934H71.3187C72.2065 27.934 72.9244 28.6657 72.9244 29.5422V33.323H46.583V29.5426ZM46.0224 40.0941L62.3109 46.9308L58.2749 49.3461C56.1292 47.2182 49.0312 46.8055 46.0224 46.8055C43.0097 46.8055 35.9112 47.2194 33.7701 49.3467L29.7328 46.9308L46.0224 40.0941ZM34.3471 56.8471C34.3471 55.9415 38.357 54.2513 46.0224 54.2513C53.6926 54.2513 57.705 55.9415 57.705 56.8471C57.705 57.7534 53.6926 59.4436 46.0224 59.4436C38.357 59.4436 34.3471 57.7534 34.3471 56.8471Z" fill="#FF6B09"/>
<path d="M59.7548 68.5234C58.7345 68.5234 57.9043 69.3533 57.9043 70.3739C57.9043 71.3946 58.7345 72.2252 59.7548 72.2252C60.7755 72.2252 61.6057 71.3946 61.6057 70.3739C61.6057 69.3533 60.7755 68.5234 59.7548 68.5234ZM59.7548 71.1061C59.3516 71.1061 59.0233 70.7776 59.0233 70.3739C59.0233 69.9703 59.3516 69.6425 59.7548 69.6425C60.1584 69.6425 60.4866 69.9703 60.4866 70.3739C60.4866 70.7776 60.1584 71.1061 59.7548 71.1061Z" fill="#FF6B09"/>
<path d="M61.8896 30.0691H57.6211V31.1881H61.8896V30.0691Z" fill="#FF6B09"/>
</g>
<path d="M101 14.7255V1H1V101H101V87.2745" stroke="#FF6B09" stroke-width="2"/>
<defs>
<clipPath id="clip0_1_3429">
<rect width="48" height="47" fill="white" transform="translate(27 27)"/>
</clipPath>
</defs>
</svg>
