<svg width="102" height="102" viewBox="0 0 102 102" fill="none" xmlns="http://www.w3.org/2000/svg">
<g clip-path="url(#clip0_1_3422)">
<path d="M31.0868 73.5489C36.2482 73.5489 66.1084 73.5489 71.2638 73.5489C71.4628 68.9671 71.1346 61.3652 68.3176 57.747L68.2157 57.6171L62.0599 54.5263C62.1936 54.0755 62.2594 53.6625 62.2858 53.3589C62.3162 52.9945 62.266 52.6522 62.1359 52.3422C61.1203 49.912 58.9714 48.6335 57.7894 48.0885C58.1496 47.3627 58.3818 46.5836 58.494 45.7875C59.1631 45.5991 59.7013 45.0688 59.8778 44.3614L60.5963 41.4423C60.7236 40.9274 60.6437 40.3933 60.37 39.9391C60.2523 39.7433 60.0999 39.5785 59.9291 39.4375C61.9549 34.8359 58.562 30.4971 58.3771 30.2687C54.7025 26.2957 50.0604 27.0386 49.815 27.0826C43.1158 28.4854 40.5305 33.6195 41.9901 39.641C41.5577 40.12 41.3762 40.7873 41.5364 41.4416L42.2585 44.3639C42.4336 45.0661 42.9675 45.5945 43.6319 45.7852C43.8368 47.2431 44.454 48.5617 45.3603 49.6243V51.9384C35.7469 56.8615 41.8382 53.7207 34.1341 57.6181C34.1189 57.6908 30.5192 61.5166 31.0542 72.856L31.0868 73.5489ZM69.8678 72.0943H63.2554V69.3166L67.6288 59.3049C69.8197 62.9413 69.901 69.8845 69.8678 72.0943ZM60.8431 53.2353C60.588 56.1666 58.9805 55.2806 57.9881 57.5389C57.2077 56.6807 56.9729 55.6515 57.1826 54.5499C57.5616 52.5272 56.327 51.9264 56.6322 49.8011L56.6784 49.7524V49.7456C56.7046 49.7163 56.9481 49.4264 57.0186 49.3347C59.6347 50.4752 60.8942 52.5962 60.8431 53.2353ZM46.8086 50.9313C48.0231 51.7737 49.4892 52.2715 51.066 52.2715C52.5511 52.2715 53.9615 51.8394 55.1708 51.0437C55.3384 52.7146 55.9914 53.0491 55.7597 54.2786C55.7162 54.5069 55.6928 54.7318 55.6788 54.953L51.1756 60.0283L45.4191 53.5384L46.8086 52.8127V50.9313H46.8086ZM44.9982 44.72V41.9061C44.9982 40.8699 44.9982 36.7589 44.9982 36.9619C45.699 35.6657 46.6545 34.7257 47.8419 34.1621C51.022 35.9615 54.6825 38.6468 57.1374 41.3493C57.135 44.791 57.1471 44.8004 57.1242 45.0832L57.1226 45.1011C56.9311 48.2264 54.3613 50.817 51.066 50.817C47.8624 50.817 45.2026 48.3017 45.0102 45.0702C45.0003 44.9544 44.9982 44.8383 44.9982 44.72ZM44.1015 54.2403L51.1756 62.2151L55.925 56.8623C56.0336 57.1748 56.1858 57.4701 56.3599 57.7553L51.1756 64.2385L43.4448 54.5699L44.1015 54.2403ZM58.5857 43.5496V41.3028C58.6494 41.2298 59.1893 40.6107 59.1257 40.6837C59.1555 41.8213 59.2783 40.4786 58.5857 43.5496ZM50.083 28.5119C50.3703 28.5298 54.2307 27.9247 57.2816 31.2186C57.4017 31.3694 59.8854 34.5692 58.8876 38.0698C58.5461 36.5121 57.9508 34.516 57.0101 33.5634L55.9818 34.5876C56.9107 35.5284 57.5208 38.3932 57.7531 39.8785C53.4925 35.4202 47.9965 32.5984 47.9211 32.5506C47.6454 32.7221 45.3196 33.1643 43.6305 36.4473L43.5498 36.6043V39.0155C43.4773 39.0163 43.2644 39.0185 43.3369 39.0178C42.2637 33.8362 44.319 29.7201 50.083 28.5119ZM43.1843 40.5141L43.5498 41.9949V43.5514L42.9423 41.0926C42.8532 40.7261 43.1247 40.5871 43.1843 40.5141ZM42.1194 55.2353L51.1756 66.5617L57.3029 58.8982C57.9695 59.4947 58.2899 59.5793 59.7031 60.306L59.2265 58.6891C59.1055 58.2786 59.5843 57.6203 59.8735 57.3177C60.5191 56.9675 61.0573 56.4681 61.4598 55.8514L66.459 58.3617L61.807 69.0119V72.0943H40.5435V69.0116L35.8894 58.3628L42.1194 55.2353ZM34.7211 59.3081L39.0952 69.317V72.0943H32.4828C32.4496 69.8852 32.5316 62.9455 34.7211 59.3081Z" fill="#FF6B09"/>
</g>
<path d="M101 14.7255V1H1V101H101V87.2745" stroke="#FF6B09" stroke-width="2"/>
<defs>
<clipPath id="clip0_1_3422">
<rect width="39.7409" height="48" fill="white" transform="translate(31 27)"/>
</clipPath>
</defs>
</svg>
