<svg width="453" height="621" viewBox="0 0 453 621" fill="none" xmlns="http://www.w3.org/2000/svg">
    <path
        d="M423.586 322.005C418.088 309.679 410.504 297.542 399.414 283.522C371.45 248.332 362.919 169.86 362.824 169.108C362.445 165.344 359.791 162.239 356.283 161.11C352.681 159.981 348.795 161.016 346.236 163.838C312.869 201.193 326.898 258.87 334.481 281.923C336.567 288.227 338.842 295.66 340.452 303.187C352.775 364.064 328.982 391.633 323.39 397.184C317.987 398.689 314.29 397.937 310.877 394.267C299.123 381.377 295.237 339.13 300.735 284.087C301.873 272.89 301.588 262.822 299.976 253.413C288.381 185.759 245.867 142.362 235.044 127.143C205.279 83.1085 202.246 9.81165 202.151 9.15302C202.056 5.67165 200.066 2.56665 196.938 1.0612C193.904 -0.444256 190.207 -0.256073 187.364 1.71984C137.693 35.4985 141.959 116.887 148.878 162.333C150.49 172.871 153.618 183.598 159.021 197.147C178.264 245.603 155.229 308.174 155.04 308.739C154.85 309.303 154.661 309.773 154.566 310.338C151.627 325.769 146.698 334.99 141.2 334.99C140.631 334.99 140.063 334.896 139.399 334.708C132.669 333.296 129.162 326.145 129.067 319.935C128.688 239.676 48.2096 212.672 47.3565 212.389C43.7544 211.26 39.7731 212.295 37.3086 215.212C34.7492 218.129 34.2752 222.175 35.9815 225.562C36.9294 227.538 39.9627 236.194 37.8773 266.774C36.0763 294.249 31.0523 321.441 22.995 347.504C3.8471 409.98 6.88043 469.164 7.07002 471.986C21.794 632.23 252.049 660.308 388.701 570.029C403.678 560.149 415.906 548.859 424.912 536.439C475.342 466.811 445.672 372.25 423.586 322.005ZM73.3303 475.091C73.6147 480.266 69.6335 484.689 64.4199 484.971H63.8512C58.8272 484.971 54.6564 481.113 54.372 476.126C53.5189 462.389 53.7085 447.993 54.7512 432.374C55.1303 427.199 59.6803 423.341 64.8939 423.623C70.1074 423.999 74.0887 428.515 73.7095 433.69C72.6659 448.558 72.4772 462.107 73.3303 475.091ZM77.9742 391.727C77.4054 396.525 73.3294 400.007 68.5898 400.007C68.2106 400.007 67.8315 400.007 67.3575 399.913C62.2388 399.254 58.5419 394.644 59.1106 389.469L63.6606 353.149C64.3242 348.068 68.969 344.399 74.2773 344.964C79.4908 345.622 83.1877 350.327 82.5242 355.502L77.9742 391.727Z"
        fill="#ff6b09" />
    <path
        d="M359.454 128.726C354.284 127.931 350.739 123.135 351.536 118.003C352.128 114.18 355.553 94.6092 364.847 84.7683C368.424 80.9736 374.414 80.776 378.247 84.3411C382.065 87.8921 382.259 93.8471 378.677 97.6418C374.743 101.809 371.391 113.735 370.272 120.871C369.472 125.948 364.701 129.511 359.454 128.726Z"
        fill="#ff6b09" />
    <path
        d="M13.8818 175.594C12.0675 168.597 7.5592 157.056 3.23196 153.289C-0.706636 149.861 -1.10002 143.917 2.35229 140.012C5.79607 136.098 11.7803 135.698 15.7283 139.139C25.9431 148.028 31.2799 167.173 32.2477 170.917C33.5435 175.948 30.4893 181.066 25.4255 182.361C20.2499 183.653 15.1719 180.541 13.8818 175.594Z"
        fill="#ff6b09" />
</svg>